<svg xmlns="http://www.w3.org/2000/svg" viewBox="46 254 113 63.25">
  <defs>
    <style>
      .cls-1 {
        fill: #5dcae7;
      }

      .cls-2 {
        fill: #de1b53;
      }

      .cls-3 {
        fill: #175da7;
      }

      .cls-4 {
        fill: #faa61a;
      }

      .cls-5 {
        fill: #8ec64d;
      }

      .cls-6 {
        fill: #fcdc00;
      }

      .cls-10, .cls-7 {
        fill: none;
      }

      .cls-7 {
        stroke: #231f20;
        stroke-miterlimit: 10;
        stroke-width: 0.763px;
      }

      .cls-8 {
        fill: #0472b3;
      }

      .cls-9 {
        fill: #ffc711;
      }
    </style>
  </defs>
  <g id="Group_15" data-name="Group 15" transform="translate(46 254.096)">
    <g id="Group_3" data-name="Group 3" transform="translate(56.361 -0.096)">
      <path id="Path_1" data-name="Path 1" d="M211.766,23.938l-.558-5.138-1.553,1.553L208.5,21.469l5.7,6.851a2.534,2.534,0,0,1,.04,3.107,14.526,14.526,0,0,1,1.593-1.713Z" transform="translate(-181.813 -11.274)"/>
      <path id="Path_2" data-name="Path 2" d="M229.171,29.885l-8.842-.239c3.744-3.585,7.608-7.329,8.922-8.763l-.08,9,7.807.677a23.25,23.25,0,0,0-3.505-6.174c-1.753-2.35-2.868-3.744-3.465-4.461,1.553-2.191,5.138-7.727,5.138-7.727L208.3,38.13s.876-.04.8.04c.558.358,1,.637,1.354.836a32.826,32.826,0,0,0,3.147,1.753l4.1-3.983a11.413,11.413,0,0,1-1.673-1.115l-2.43.4,1.553-1.434c1.036-.956,1.514-1.314,2.987-2.788a3.049,3.049,0,0,1,3.465-.478l8.086,6.453Z" transform="translate(-181.693 -7.302)"/>
      <path id="Path_3" data-name="Path 3" class="cls-1" d="M205.867,1.137A17.179,17.179,0,0,0,202.083.5c-.358.358-1,.916-1.593,1.474L198.1,4.125l.2,4.461,1.553-1.553Z" transform="translate(-175.556 -0.263)"/>
      <path id="Path_4" data-name="Path 4" d="M176.126,50.5,168.2,58.466h4.66l4.421-4.182A24.542,24.542,0,0,1,176.126,50.5Z" transform="translate(-157.565 -30.347)"/>
      <path id="Path_5" data-name="Path 5" class="cls-2" d="M273.793,67.9l-4.023,3.9-2.27,2.231,4.023.358,1.434-1.474h0a8.423,8.423,0,0,0,.916-.916A20.869,20.869,0,0,0,273.793,67.9Z" transform="translate(-217.313 -40.817)"/>
      <path id="Path_6" data-name="Path 6" class="cls-3" d="M242.506,85.3l-16.649,17.765H220.4L238.085,84.9Z" transform="translate(-188.973 -51.045)"/>
      <path id="Path_7" data-name="Path 7" class="cls-4" d="M245.838,31.5,236,41.259l9.838.279V31.5Z" transform="translate(-198.36 -18.915)"/>
      <path id="Path_8" data-name="Path 8" class="cls-5" d="M260.7,56.7c.04.358.478,7.926.478,7.926l7.329-7.249Z" transform="translate(-213.222 -34.078)"/>
      <path id="Path_9" data-name="Path 9" class="cls-3" d="M230.561,21.8l-9.8,9.759L216.7,25.783Z" transform="translate(-186.747 -13.079)"/>
      <path id="Path_10" data-name="Path 10" class="cls-6" d="M227.336,5.9,226.3,15.3l10.037-3.067A51.831,51.831,0,0,0,227.336,5.9Z" transform="translate(-192.523 -3.512)"/>
      <path id="Path_11" data-name="Path 11" class="cls-2" d="M215.3,19.1l.558,5.059,3.824-.916Z" transform="translate(-185.905 -11.454)"/>
      <path id="Path_12" data-name="Path 12" class="cls-2" d="M253.359,31.3,248.3,36.279l4.939,5.138Z" transform="translate(-205.761 -18.795)"/>
      <path id="Path_13" data-name="Path 13" class="cls-4" d="M198.3,50.209l4.063-3.824a26.233,26.233,0,0,1-2.35-3.585Z" transform="translate(-175.676 -25.714)"/>
      <path id="Path_14" data-name="Path 14" class="cls-4" d="M220.717,5.9,215.3,11.158l4.381,4.142Z" transform="translate(-185.905 -3.512)"/>
      <g id="Group_1" data-name="Group 1" transform="translate(35.927 29.433)">
        <path id="Path_15" data-name="Path 15" class="cls-6" d="M236.62,80.611,231.8,73.8l.119,5.7A24.735,24.735,0,0,0,236.62,80.611Z" transform="translate(-231.76 -73.8)"/>
        <path id="Path_16" data-name="Path 16" class="cls-4" d="M237.993,80.77,240.7,78.1a89.58,89.58,0,0,1-9-4.3c.637.916.677.956,4.78,6.771A11.319,11.319,0,0,0,237.993,80.77Z" transform="translate(-231.7 -73.8)"/>
      </g>
      <path id="Path_17" data-name="Path 17" d="M265.169,83.247l-.08,2.191-5.337,5.656L257.8,94.042l9.639-9.081.319-2.071.358-2.589Z" transform="translate(-211.477 -48.278)"/>
      <path id="Path_18" data-name="Path 18" class="cls-5" d="M192.036,41.692l3.625-3.625A21.526,21.526,0,0,1,194.107,35c-.518.478-2.39,2.31-3.107,3.027,0,0,.358,1.434,1.036,3.664" transform="translate(-171.284 -21.021)"/>
      <path id="Path_19" data-name="Path 19" d="M189.585,82.4,176.6,95.5l5.178-.04,11.431-11.232C191.776,83.555,190.541,82.878,189.585,82.4Z" transform="translate(-162.619 -49.541)"/>
      <path id="Path_20" data-name="Path 20" d="M144.2,110.765,157.185,97.74l5.3-.04-12.945,13.065Z" transform="translate(-143.125 -58.747)"/>
      <path id="Path_21" data-name="Path 21" class="cls-4" d="M243.3,20.365l8.245-8.165h4.66l-8.444,8.285Z" transform="translate(-202.752 -7.302)"/>
      <path id="Path_22" data-name="Path 22" class="cls-2" d="M176.8,58.63,203.287,32.7l4.461.119L182.1,58.59Z" transform="translate(-162.74 -19.637)"/>
      <path id="Path_23" data-name="Path 23" class="cls-3" d="M180.283,3.514,153.676,29.244H148.1S175.026,2.757,175.782,2C177.5,2.438,180.283,3.514,180.283,3.514Z" transform="translate(-145.471 -1.165)"/>
      <path id="Path_24" data-name="Path 24" class="cls-3" d="M171.42,54.149l-2.27-2.549L145.968,73.547l4.3.04-7.17,8.165,8.245-7.966h0Z" transform="translate(-142.463 -31.009)"/>
      <path id="Path_25" data-name="Path 25" class="cls-6" d="M242.024,62.124a29.369,29.369,0,0,0-1.195-3.824c-.438.438-14.618,14.5-18.959,18.8l-4.222,3.943L214.7,84.11l7.249-5.7h3.386Z" transform="translate(-185.544 -35.04)"/>
      <path id="Path_26" data-name="Path 26" class="cls-7" d="M272.5,85.5" transform="translate(-220.322 -51.406)"/>
      <path id="Path_27" data-name="Path 27" d="M183.957.978l.08,1.434,2.589-2.39a15.547,15.547,0,0,0-3.027-.08l-.757.08L173.8,8.785l2.748-1.872,6.094-4.82A12.1,12.1,0,0,0,183.957.978Z" transform="translate(-160.935 0.096)"/>
      <path id="Path_28" data-name="Path 28" class="cls-6" d="M163.367,10.9c0,.558.159,4.66.159,4.66L146.758,32.05H141.5Z" transform="translate(-141.5 -6.52)"/>
      <path id="Path_29" data-name="Path 29" d="M193.2,20.8" transform="translate(-172.607 -12.477)"/>
      <g id="Group_2" data-name="Group 2" transform="translate(22.584 34.731)">
        <path id="Path_30" data-name="Path 30" class="cls-1" d="M206.525,87.219l-.279-.119L198.2,94.986h4.62l6.851-6.532C208.556,88.056,207.481,87.658,206.525,87.219Z" transform="translate(-198.2 -87.1)"/>
      </g>
      <path id="Path_31" data-name="Path 31" class="cls-6" d="M195.512,50.029l1.713-7.329s-3.505,3.545-3.625,3.625A16.971,16.971,0,0,0,195.512,50.029Z" transform="translate(-172.848 -25.654)"/>
      <path id="Path_32" data-name="Path 32" class="cls-4" d="M221.5,77.883l.916.438q1.135.478,2.39.956c.279.119.6.2.876.319l-.119-5.7c-.279.279-.319.319-4.063,3.983Z" transform="translate(-189.635 -44.427)"/>
    </g>
    <g id="Group_12" data-name="Group 12" transform="translate(0 17.508)">
      <g id="Group_7" data-name="Group 7" transform="translate(0.677)">
        <g id="Group_4" data-name="Group 4">
          <path id="Path_33" data-name="Path 33" class="cls-8" d="M4.568,44.1H1.7v5.775l2.868-2.908Z" transform="translate(-1.7 -44.1)"/>
          <path id="Path_34" data-name="Path 34" d="M7.555,48.76,10.9,44.1H7.515L4.608,48.481h-.04V46.968L1.7,49.875v4.342H4.568V49.238h.04l3.107,4.979H11.18Z" transform="translate(-1.7 -44.1)"/>
        </g>
        <g id="Group_5" data-name="Group 5" transform="translate(9.838)">
          <path id="Path_35" data-name="Path 35" class="cls-2" d="M29.666,51.19a3.314,3.314,0,0,1-.4-1.952V44.1H26.4v5.337a5.779,5.779,0,0,0,.8,3.306,4.768,4.768,0,0,0,1.036.956l1.992-1.992A3.44,3.44,0,0,1,29.666,51.19Z" transform="translate(-26.4 -44.1)"/>
          <path id="Path_36" data-name="Path 36" d="M35.78,44.1v5.138A3.228,3.228,0,0,1,35.3,51.27a1.7,1.7,0,0,1-1.394.6,2.077,2.077,0,0,1-.916-.2L31,53.659a5.328,5.328,0,0,0,2.828.717,4.708,4.708,0,0,0,3.824-1.593,5.439,5.439,0,0,0,.836-3.346V44.1Z" transform="translate(-29.168 -44.1)"/>
        </g>
        <g id="Group_6" data-name="Group 6" transform="translate(18.88)">
          <path id="Path_37" data-name="Path 37" class="cls-9" d="M67.877,63.3h3.147l-1.673-4.1L67.2,61.351Z" transform="translate(-59.991 -53.186)"/>
          <path id="Path_38" data-name="Path 38" d="M53.2,44.1,49.1,54.217h2.987l.757-2.071h3.465l.04.119L58.5,50.114,56.07,44.1H53.2Zm.4,5.895.358-.956c.239-.637.438-1.235.637-1.872h.04c.2.637.358,1.195.6,1.872l.319.956Z" transform="translate(-49.1 -44.1)"/>
          <path id="Path_39" data-name="Path 39" class="cls-5" d="M81.708,44.1H78.8v3.545l2.908-2.908Z" transform="translate(-66.97 -44.1)"/>
          <path id="Path_40" data-name="Path 40" d="M81.708,52.71V45.7L78.8,48.608V55.18h7.09V52.71Z" transform="translate(-66.97 -45.063)"/>
        </g>
        <path id="Path_41" data-name="Path 41" d="M102.3,44.1,98.2,54.217h2.987l.757-2.071h3.465l.717,2.071h3.147L105.17,44.1Zm.358,5.895.358-.956c.239-.637.438-1.235.637-1.872h.04c.2.637.4,1.195.6,1.872l.319.956Z" transform="translate(-59.763 -44.1)"/>
      </g>
      <g id="Group_9" data-name="Group 9" transform="translate(0.677 12.626)">
        <path id="Path_42" data-name="Path 42" class="cls-10" d="M87.2,81.938l.438-.438H87.2Z" transform="translate(-53.145 -79.23)"/>
        <path id="Path_43" data-name="Path 43" class="cls-10" d="M87.2,83.77h.518a2.639,2.639,0,0,0,1.314-.2.965.965,0,0,0,.518-.916.954.954,0,0,0-.558-.956,3.159,3.159,0,0,0-1.354-.2h0l-.438.438Z" transform="translate(-53.145 -79.23)"/>
        <path id="Path_44" data-name="Path 44" class="cls-10" d="M139.153,81.759a2.808,2.808,0,0,0-1.235-.159H137.4v1.992h.717a2.406,2.406,0,0,0,1.115-.2.983.983,0,0,0-.08-1.633Z" transform="translate(-83.35 -79.29)"/>
        <path id="Path_45" data-name="Path 45" class="cls-9" d="M4.608,75.8H1.7v6.214l2.908-2.868Z" transform="translate(-1.7 -75.8)"/>
        <path id="Path_46" data-name="Path 46" d="M4.608,84.2,1.7,87.068v3.9H8.79v-2.43H4.608Z" transform="translate(-1.7 -80.854)"/>
        <g id="Group_8" data-name="Group 8" transform="translate(8.006 0)">
          <path id="Path_47" data-name="Path 47" d="M24.668,75.8H21.8v5.337a6.167,6.167,0,0,0,.04.876l2.828-2.828Z" transform="translate(-21.8 -75.8)"/>
          <path id="Path_48" data-name="Path 48" d="M28.472,80.938a3.228,3.228,0,0,1-.478,2.031,1.934,1.934,0,0,1-2.868-.08,3.314,3.314,0,0,1-.4-1.952V79.146L21.9,81.974a5.006,5.006,0,0,0,.757,2.43,4.635,4.635,0,0,0,3.864,1.633,4.708,4.708,0,0,0,3.824-1.593,5.439,5.439,0,0,0,.836-3.346V75.8H28.432v5.138Z" transform="translate(-21.86 -75.8)"/>
        </g>
        <path id="Path_49" data-name="Path 49" d="M56.947,80.221h0v2.31l2.868-2.868V75.8H57.066l-2.589,3.664L51.848,75.8H49.1V85.917h2.748V82.611c0-.8,0-1.673-.04-2.39h.04c.438.637.876,1.314,1.314,1.952l1.195,1.713,1.195-1.713C56.07,81.536,56.509,80.859,56.947,80.221Z" transform="translate(-30.22 -75.8)"/>
        <path id="Path_50" data-name="Path 50" class="cls-8" d="M68.8,88.447v3.306h2.868V85.5L68.8,88.368Z" transform="translate(-42.074 -81.636)"/>
        <path id="Path_51" data-name="Path 51" d="M82.868,78.07h.438L85.377,76a10.557,10.557,0,0,0-2.111-.2H80v5.576l2.868-2.868Z" transform="translate(-48.812 -75.8)"/>
        <path id="Path_52" data-name="Path 52" d="M86.333,76.619a3.373,3.373,0,0,0-.956-.319l-2.071,2.071h0a2.725,2.725,0,0,1,1.354.2.99.99,0,0,1,.558.956.965.965,0,0,1-.518.916,3.2,3.2,0,0,1-1.314.2h-.518V78.809L80,81.677v4.541h2.868V82.832h.478a6.485,6.485,0,0,0,3.226-.677,2.92,2.92,0,0,0,1.514-2.669A3.014,3.014,0,0,0,86.333,76.619Z" transform="translate(-48.812 -76.101)"/>
        <path id="Path_53" data-name="Path 53" d="M109.833,80.938a3.228,3.228,0,0,1-.478,2.031,1.934,1.934,0,0,1-2.868-.08,3.314,3.314,0,0,1-.4-1.952v-.2L103.5,83.328a3.365,3.365,0,0,0,.518,1.075,4.635,4.635,0,0,0,3.864,1.633,4.708,4.708,0,0,0,3.824-1.593,5.439,5.439,0,0,0,.836-3.346V75.8h-2.748v5.138Z" transform="translate(-62.952 -75.8)"/>
        <path id="Path_54" data-name="Path 54" class="cls-5" d="M105.768,75.8H102.9v5.337a7.247,7.247,0,0,0,.279,2.231l2.589-2.589Z" transform="translate(-62.591 -75.8)"/>
        <path id="Path_55" data-name="Path 55" class="cls-2" d="M143.752,92.3,141.8,94.252l.916,1.593h3.266Z" transform="translate(-85.997 -85.728)"/>
        <path id="Path_56" data-name="Path 56" d="M136.334,81.655a2.753,2.753,0,0,0,1.872-2.708,2.717,2.717,0,0,0-1.633-2.629,6.182,6.182,0,0,0-2.828-.518H130.2V85.917h2.868V82.093h.438l1.314,2.27,1.952-1.952ZM134.9,79.9a2.064,2.064,0,0,1-1.115.2h-.717V78.11h.518a2.924,2.924,0,0,1,1.235.159.88.88,0,0,1,.478.836A.843.843,0,0,1,134.9,79.9Z" transform="translate(-79.017 -75.8)"/>
      </g>
      <g id="Group_11" data-name="Group 11" transform="translate(0 25.093)">
        <path id="Path_57" data-name="Path 57" d="M4.939,115.569l.876-1.275a6.165,6.165,0,0,0,1.394-3.346A2.989,2.989,0,0,0,5.5,108.2l-2.111,2.111a.925.925,0,0,1,.876.956c0,.637-.478,1.314-1.394,2.629L0,118v.04H7.568v-2.43l-2.629-.04Z" transform="translate(0 -107.762)"/>
        <path id="Path_58" data-name="Path 58" class="cls-2" d="M4.608,107.1a5.368,5.368,0,0,0-2.908.836v2.629a4.1,4.1,0,0,1,2.39-.956.777.777,0,0,1,.319.04l2.111-2.111A3.989,3.989,0,0,0,4.608,107.1Z" transform="translate(-1.023 -107.1)"/>
        <g id="Group_10" data-name="Group 10" transform="translate(17.725)">
          <path id="Path_59" data-name="Path 59" d="M49.3,122.611h2.868V115.8L49.3,118.708Z" transform="translate(-47.388 -112.335)"/>
          <path id="Path_60" data-name="Path 60" d="M44.5,108.733v2.629l1.912-.637v2.748l2.868-2.908V107.1Z" transform="translate(-44.5 -107.1)"/>
        </g>
        <path id="Path_61" data-name="Path 61" d="M66.581,107.5l-2.43,2.43h.876L62,117.617h3.027L69.01,107.54v-.04Z" transform="translate(-37.305 -107.341)"/>
        <path id="Path_62" data-name="Path 62" class="cls-9" d="M60.8,107.5v2.43h2.629l2.43-2.43Z" transform="translate(-36.583 -107.341)"/>
      </g>
      <path id="Path_63" data-name="Path 63" d="M22.176,116.462a8.608,8.608,0,0,1,0-7.568A3.57,3.57,0,0,1,25.2,107.5a3.57,3.57,0,0,1,3.027,1.394,8.608,8.608,0,0,1,0,7.568,3.57,3.57,0,0,1-3.027,1.394A3.47,3.47,0,0,1,22.176,116.462Zm3.784-1.514a5.479,5.479,0,0,0,.279-2.27,4.86,4.86,0,0,0-.279-2.27.873.873,0,0,0-1.514,0,5.479,5.479,0,0,0-.279,2.27,4.86,4.86,0,0,0,.279,2.27.794.794,0,0,0,.757.438A.772.772,0,0,0,25.96,114.948Z" transform="translate(-12.816 -82.247)"/>
    </g>
    <g id="Group_13" data-name="Group 13" transform="translate(95.315 56.821)">
      <path id="Path_64" data-name="Path 64" class="cls-10" d="M245.1,145.394a.8.8,0,0,0,.159-.518.912.912,0,0,0-.6-.876.8.8,0,0,0-.159.518A.912.912,0,0,0,245.1,145.394Z" transform="translate(-242.429 -143.522)"/>
      <path id="Path_65" data-name="Path 65" class="cls-10" d="M242.014,152.019a.8.8,0,0,0-.438-.119.865.865,0,0,0-.876.677.8.8,0,0,0,.438.119A.933.933,0,0,0,242.014,152.019Z" transform="translate(-240.142 -148.275)"/>
      <path id="Path_66" data-name="Path 66" class="cls-10" d="M247.3,144.876a1,1,0,0,0,.159.518.912.912,0,0,0,.6-.876A1,1,0,0,0,247.9,144,.912.912,0,0,0,247.3,144.876Z" transform="translate(-244.114 -143.522)"/>
      <path id="Path_67" data-name="Path 67" class="cls-10" d="M242.716,147.116h.159a.926.926,0,0,0-.916-.916H241.8A.9.9,0,0,0,242.716,147.116Z" transform="translate(-240.804 -144.846)"/>
      <path id="Path_68" data-name="Path 68" class="cls-10" d="M240.9,149.877a.9.9,0,0,0,.637-.239.958.958,0,0,0-.8-.438.9.9,0,0,0-.637.239A1.082,1.082,0,0,0,240.9,149.877Z" transform="translate(-239.781 -146.651)"/>
      <path id="Path_69" data-name="Path 69" class="cls-10" d="M245.891,147.9h0a1.224,1.224,0,0,1-.6-.4,1.163,1.163,0,0,1-.358.08.75.75,0,0,1-.319-.08,1,1,0,0,1-.6.4h0a.851.851,0,0,1-.319.677,1.13,1.13,0,0,1,.159.518.678.678,0,0,1-.04.279.862.862,0,0,1,.438.6h.04a.811.811,0,0,1,.6.239,1.061,1.061,0,0,1,.478-.119h.119a.986.986,0,0,1,.558-.637v-.159a.811.811,0,0,1,.239-.6A.93.93,0,0,1,245.891,147.9Z" transform="translate(-241.947 -145.628)"/>
      <path id="Path_70" data-name="Path 70" class="cls-10" d="M250.1,149.919a.952.952,0,0,0,.558.2.933.933,0,0,0,.717-.319.952.952,0,0,0-.558-.2A.933.933,0,0,0,250.1,149.919Z" transform="translate(-245.798 -146.892)"/>
      <path id="Path_71" data-name="Path 71" class="cls-10" d="M249.2,147.116h.159a.9.9,0,0,0,.916-.916h-.159A.9.9,0,0,0,249.2,147.116Z" transform="translate(-245.257 -144.846)"/>
      <path id="Path_72" data-name="Path 72" class="cls-10" d="M249.958,152.2a1.163,1.163,0,0,0-.358.08.938.938,0,0,0,.916.757,1.163,1.163,0,0,0,.358-.08A.938.938,0,0,0,249.958,152.2Z" transform="translate(-245.497 -148.456)"/>
      <path id="Path_73" data-name="Path 73" class="cls-10" d="M248.14,153.9a.505.505,0,0,0-.04.239.91.91,0,0,0,.8.916.505.505,0,0,0,.04-.239A.852.852,0,0,0,248.14,153.9Z" transform="translate(-244.595 -149.479)"/>
      <path id="Path_74" data-name="Path 74" class="cls-10" d="M246.457,154.917a.933.933,0,0,0-.319-.717.918.918,0,0,0-.438.8.933.933,0,0,0,.319.717A.958.958,0,0,0,246.457,154.917Z" transform="translate(-243.151 -149.659)"/>
      <path id="Path_75" data-name="Path 75" class="cls-10" d="M243.756,153.939a.505.505,0,0,0-.04-.239.926.926,0,0,0-.916.916.505.505,0,0,0,.04.239A.926.926,0,0,0,243.756,153.939Z" transform="translate(-241.406 -149.358)"/>
      <path id="Path_76" data-name="Path 76" d="M245.314,146.425a.981.981,0,0,0-.358-.757,1.073,1.073,0,0,0,.2-.6,9.553,9.553,0,0,0-1.753-1.912.776.776,0,0,0-.319.04,1,1,0,0,0-1.593,0,.877.877,0,0,0-.319-.04,1.145,1.145,0,0,0-.717.279,1.039,1.039,0,0,0-.279.677,1.017,1.017,0,0,0-.757.956.876.876,0,0,0,.159.518.96.96,0,0,0-.279.717.971.971,0,0,0,.478.836.505.505,0,0,0-.04.239,7.638,7.638,0,0,0,1.952,1.673h0a1.061,1.061,0,0,0,.478-.12,1.073,1.073,0,0,0,.6.2h0a.944.944,0,0,0,.916-.677h.08a.986.986,0,0,0,1-1v-.119A1.091,1.091,0,0,0,245.314,146.425Zm-1.992.159a.969.969,0,0,0-.518.6h-.08a1.061,1.061,0,0,0-.478.12,1.073,1.073,0,0,0-.6-.2,1.03,1.03,0,0,0-.438-.558c0-.08.04-.159.04-.239a1.227,1.227,0,0,0-.119-.518.961.961,0,0,0,.279-.677.727.727,0,0,1,.876-.319.727.727,0,0,1,.876.319.852.852,0,0,0,.358.717,1.073,1.073,0,0,0-.2.6Zm.279,1.753a.889.889,0,0,1-.717-.836.433.433,0,0,1,.04-.2.9.9,0,0,1,.717.876C243.6,148.217,243.6,148.257,243.6,148.336Zm-1.474.438a.94.94,0,0,1-.279-.637.89.89,0,0,1,.4-.717.94.94,0,0,1,.279.637A.89.89,0,0,1,242.128,148.775Zm-.518-1.394a.9.9,0,0,1-.8.876c0-.04-.04-.119-.04-.159a.9.9,0,0,1,.8-.876C241.57,147.261,241.61,147.3,241.61,147.381Zm-.04-4.023a.831.831,0,0,1,.518.8,1.061,1.061,0,0,1-.12.478.831.831,0,0,1-.518-.8A.621.621,0,0,1,241.57,143.358Zm1.474,0a.8.8,0,0,1,.119.438.871.871,0,0,1-.518.8.8.8,0,0,1-.119-.438A.831.831,0,0,1,243.044,143.358Zm1.992,1.713a1.13,1.13,0,0,1-.159.518.915.915,0,0,0-.558-.159,1,1,0,0,0-.717.319.892.892,0,0,1-.319-.6h.119a1,1,0,0,0,1-.916A.9.9,0,0,1,245.036,145.07Zm-.239.637a.94.94,0,0,1-.637.279,1.06,1.06,0,0,1-.478-.119.94.94,0,0,1,.637-.279A.551.551,0,0,1,244.8,145.708Zm-1.514-.717a.871.871,0,0,1,.876-.8h.119a.871.871,0,0,1-.876.8A.075.075,0,0,1,243.283,144.991Zm.119-1.713a.876.876,0,0,1,.876.836h-.119a1,1,0,0,0-1,.916,1.031,1.031,0,0,1-.438-.279.955.955,0,0,0,.558-.876,1.226,1.226,0,0,0-.12-.518A.293.293,0,0,1,243.4,143.278Zm-1.115-.358a.851.851,0,0,1,.677.319.955.955,0,0,0-.558.876,1.226,1.226,0,0,0,.12.518.737.737,0,0,1-.478,0,1.1,1.1,0,0,0,.119-.518.98.98,0,0,0-.558-.876A.982.982,0,0,1,242.287,142.92Zm-1.713.6a.9.9,0,0,1,.637-.239.505.505,0,0,1,.239.04,1.1,1.1,0,0,0-.119.518,1.091,1.091,0,0,0,.558.916.739.739,0,0,1-.478.279,1,1,0,0,0-1-.916H240.3A1.047,1.047,0,0,1,240.575,143.517Zm.717,1.514h-.08a.9.9,0,0,1-.876-.8h.08A.817.817,0,0,1,241.292,145.031Zm-1.075-.8a1,1,0,0,0,1,.916h.08a.786.786,0,0,1-.239.558,1.04,1.04,0,0,0-.8-.4.978.978,0,0,0-.6.2.8.8,0,0,1-.12-.438A.853.853,0,0,1,240.216,144.234Zm.757,1.514a.952.952,0,0,1-.558.2.9.9,0,0,1-.717-.358.952.952,0,0,1,.558-.2A.9.9,0,0,1,240.973,145.747Zm-1.553.518a.811.811,0,0,1,.239-.6,1.04,1.04,0,0,0,.8.4.978.978,0,0,0,.6-.2.8.8,0,0,1,.12.438.359.359,0,0,1-.04.2.788.788,0,0,0-.438-.08.945.945,0,0,0-.916.637A1,1,0,0,1,239.419,146.265Zm1.673.319a.828.828,0,0,1-.836.558,1.415,1.415,0,0,1-.4-.08.828.828,0,0,1,.836-.558A.655.655,0,0,1,241.092,146.584Zm-1.235.8a.359.359,0,0,1,.04-.2.788.788,0,0,0,.438.08.982.982,0,0,0,.916-.637,1.245,1.245,0,0,1,.358.438.965.965,0,0,0-.876,1v.2A.91.91,0,0,1,239.858,147.381Zm1.792,1.633v-.04a.9.9,0,0,1-.836-.6.965.965,0,0,0,.876-1v-.2a1.132,1.132,0,0,1,.478.159,1.04,1.04,0,0,0-.4.8,1.145,1.145,0,0,0,.279.717.655.655,0,0,1-.4.08Zm1.075,0v0a.8.8,0,0,1-.518-.159,1.04,1.04,0,0,0,.4-.8,1.145,1.145,0,0,0-.279-.717,1.178,1.178,0,0,1,.4-.08h.04c0,.08-.04.119-.04.2a.946.946,0,0,0,.8.956A.781.781,0,0,1,242.725,149.014Zm1.036-.677v0h-.04c0-.08.04-.119.04-.2a.946.946,0,0,0-.8-.956.862.862,0,0,1,.438-.478.98.98,0,0,0,.956.717.877.877,0,0,0,.319-.04v.08A.948.948,0,0,1,243.761,148.336Zm-.279-1.713a.678.678,0,0,1,.279-.04.852.852,0,0,1,.836.677.678.678,0,0,1-.279.04A.852.852,0,0,1,243.482,146.624Zm1.235.6a.98.98,0,0,0-.956-.717.877.877,0,0,0-.319.04v-.08a1.13,1.13,0,0,1,.159-.518.915.915,0,0,0,.558.159,1,1,0,0,0,.717-.319.851.851,0,0,1,.319.677A.946.946,0,0,1,244.717,147.221Z" transform="translate(-239.3 -142.8)"/>
    </g>
    <g id="Group_14" data-name="Group 14" transform="translate(0.199 56.861)">
      <path id="Path_77" data-name="Path 77" d="M2.292,146.825c.637-.8.916-1.235.916-1.753a.881.881,0,0,0-1-.916,2.338,2.338,0,0,0-1.354.478v-1a2.657,2.657,0,0,1,1.434-.438,1.771,1.771,0,0,1,1.952,1.753,3.69,3.69,0,0,1-1,2.191l-.836,1.075H4.483v.916H.5Z" transform="translate(-0.5 -143.081)"/>
      <path id="Path_78" data-name="Path 78" d="M19.416,149.295l1.474-2.35h0a1.517,1.517,0,0,1-.637.12,1.742,1.742,0,0,1-1.753-1.753,1.929,1.929,0,0,1,2.071-1.912,1.9,1.9,0,0,1,2.031,1.912,3.454,3.454,0,0,1-.717,1.912l-1.314,2.071Zm2.111-4.063a1.021,1.021,0,0,0-1.036-1,1,1,0,0,0-1.036,1,1.036,1.036,0,0,0,2.071,0Z" transform="translate(-11.33 -143.201)"/>
      <path id="Path_79" data-name="Path 79" d="M37.015,143.418H35.9V142.9h2.828v.518H37.613v2.868h-.6Z" transform="translate(-21.8 -142.9)"/>
      <path id="Path_80" data-name="Path 80" d="M47.6,142.9h.6v1.354H49.87V142.9h.6v3.386h-.6v-1.514H48.2v1.514h-.6Z" transform="translate(-28.84 -142.9)"/>
      <path id="Path_81" data-name="Path 81" d="M71.159,147.8a3.532,3.532,0,0,0,1.792.6c.6,0,1-.239,1-.8,0-.637-.6-.717-1.354-.956-.836-.239-1.593-.637-1.593-1.633a1.724,1.724,0,0,1,1.952-1.713,3.648,3.648,0,0,1,1.713.438v1.036a3.72,3.72,0,0,0-1.753-.558c-.558,0-.916.2-.916.717,0,.6.6.677,1.314.916.876.279,1.633.637,1.633,1.713s-.8,1.753-2.031,1.753a3.808,3.808,0,0,1-1.753-.438Z" transform="translate(-42.919 -143.141)"/>
      <path id="Path_82" data-name="Path 82" d="M89.1,143.5h3.465v.916H90.1v1.434h2.151v.876H90.1V148.4h2.549v.916H89.1Z" transform="translate(-53.81 -143.261)"/>
      <path id="Path_83" data-name="Path 83" d="M110.775,149.415H109.7l-.558-1.434h-2.509l-.558,1.434H105l2.39-5.815h1Zm-3.824-2.27h1.832l-.319-.876-.6-1.553h0c-.2.558-.358,1.036-.6,1.553Z" transform="translate(-63.377 -143.321)"/>
      <path id="Path_84" data-name="Path 84" d="M140.447,143.3a3.3,3.3,0,0,1,1.792.478v1.075a3.025,3.025,0,0,0-1.792-.6,2.072,2.072,0,1,0,0,4.142,2.407,2.407,0,0,0,.956-.2v-1.115h-1.155v-.876H142.4v2.549a4.016,4.016,0,0,1-1.992.558,2.964,2.964,0,0,1-3.107-2.987A3.006,3.006,0,0,1,140.447,143.3Z" transform="translate(-82.811 -143.141)"/>
      <path id="Path_85" data-name="Path 85" d="M163.436,149.415H162.36l-.558-1.434h-2.509l-.558,1.434H157.7l2.39-5.815h1Zm-3.824-2.27h1.832l-.319-.876-.6-1.553h0c-.2.558-.4,1.036-.6,1.553Z" transform="translate(-95.086 -143.321)"/>
      <path id="Path_86" data-name="Path 86" d="M179.7,143.5h1l1.912,2.708,1.912-2.708h.956v5.815H184.44v-4.142h0c-.239.358-.518.717-.757,1.115l-1.075,1.553-1.075-1.553c-.279-.4-.518-.757-.757-1.115h0v4.142h-1V143.5Z" transform="translate(-108.323 -143.261)"/>
      <path id="Path_87" data-name="Path 87" d="M203.2,143.5h3.465v.916H204.2v1.434h2.151v.876H204.2V148.4h2.549v.916H203.2Z" transform="translate(-122.463 -143.261)"/>
      <path id="Path_88" data-name="Path 88" d="M220.059,147.8a3.532,3.532,0,0,0,1.792.6c.6,0,1-.239,1-.8,0-.637-.6-.717-1.354-.956-.836-.239-1.593-.637-1.593-1.633a1.724,1.724,0,0,1,1.952-1.713,3.648,3.648,0,0,1,1.713.438v1.036a3.72,3.72,0,0,0-1.753-.558c-.558,0-.916.2-.916.717,0,.6.6.677,1.314.916.876.279,1.633.637,1.633,1.713s-.8,1.753-2.031,1.753a3.808,3.808,0,0,1-1.753-.438Z" transform="translate(-132.511 -143.141)"/>
    </g>
  </g>
</svg>
