<svg id="Group_3" data-name="Group 3" xmlns="http://www.w3.org/2000/svg" xmlns:xlink="http://www.w3.org/1999/xlink" viewBox="60.5 87.5 32 23">
  <defs>
    <style>
      .cls-1 {
        fill: #fff;
      }

      .cls-2 {
        fill: #e90919;
      }

      .cls-3 {
        filter: url(#Rectangle_1);
      }
    </style>
    <filter id="Rectangle_1" x="60.5" y="87.5" width="32" height="23" filterUnits="userSpaceOnUse">
      <feOffset dy="1" input="SourceAlpha"/>
      <feGaussianBlur stdDeviation="0.5" result="blur"/>
      <feFlood flood-opacity="0.133"/>
      <feComposite operator="in" in2="blur"/>
      <feComposite in="SourceGraphic"/>
    </filter>
  </defs>
  <g class="cls-3" transform="matrix(1, 0, 0, 1, 0, 0)">
    <rect id="Rectangle_1-2" data-name="Rectangle 1" class="cls-1" width="29" height="20" transform="translate(62 88)"/>
  </g>
  <rect id="Rectangle_2" data-name="Rectangle 2" class="cls-2" width="29" height="10" transform="translate(62 88)"/>
  <g id="Group_2" data-name="Group 2" transform="translate(64 89.29)">
    <path id="Path_7" data-name="Path 7" class="cls-1" d="M2.092,3.66A3.838,3.838,0,0,1,3.113,1.1,3.5,3.5,0,0,1,4.607.025,3.928,3.928,0,0,0,0,3.735,3.881,3.881,0,0,0,4.532,7.346,4.144,4.144,0,0,1,3.212,6.4,3.772,3.772,0,0,1,2.092,3.66Z" transform="translate(0 0)"/>
    <path id="Path_8" data-name="Path 8" class="cls-1" d="M23.745,2.971l.6-.423H23.62L23.371,1.9l-.224.647H22.4l.6.423-.224.647.6-.4.6.4Z" transform="translate(-16.822 -1.452)"/>
    <path id="Path_9" data-name="Path 9" class="cls-1" d="M18.02,18.547l-.249-.647-.224.647H16.8l.6.423-.224.647.6-.4.623.4-.224-.647.6-.423Z" transform="translate(-12.617 -13.468)"/>
    <path id="Path_10" data-name="Path 10" class="cls-1" d="M29.02,18.547l-.249-.647-.224.647H27.8l.6.423-.224.647.6-.4.623.4-.224-.647.6-.423Z" transform="translate(-20.877 -13.468)"/>
    <path id="Path_11" data-name="Path 11" class="cls-1" d="M33.142,8.772H32.4L32.171,8.1l-.224.672H31.2l.573.423-.2.647.6-.4.6.4L32.545,9.2Z" transform="translate(-23.431 -6.108)"/>
    <path id="Path_12" data-name="Path 12" class="cls-1" d="M14.72,8.772,14.5,8.1l-.249.672H13.5l.6.423-.224.647.623-.4.6.4L14.87,9.2l.6-.423Z" transform="translate(-10.138 -6.108)"/>
  </g>
</svg>
