<?xml version="1.0" standalone="no"?>
<!DOCTYPE svg PUBLIC "-//W3C//DTD SVG 1.1//EN" "http://www.w3.org/Graphics/SVG/1.1/DTD/svg11.dtd" >
<svg xmlns="http://www.w3.org/2000/svg">
<metadata>Generated by IcoMoon</metadata>
<defs>
<font id="icomoon" horiz-adv-x="1024">
<font-face units-per-em="1024" ascent="960" descent="-64" />
<missing-glyph horiz-adv-x="1024" />
<glyph unicode="&#x20;" d="" horiz-adv-x="512" />
<glyph unicode="&#xe600;" d="M512-64c-282.383 0-512 229.617-512 512 0 282.263 229.617 512 512 512 282.323 0 512-229.737 512-512 0-282.383-229.677-512-512-512zM512 862.359c-228.533 0-414.479-185.886-414.479-414.359 0-228.593 185.886-414.479 414.479-414.479 228.533 0 414.479 185.886 414.479 414.479 0 228.472-185.946 414.359-414.479 414.359zM470.618 489.623h256.482v-76.137h-256.482zM470.618 413.545h-173.538v76.077h173.538z" />
<glyph unicode="&#xe601;" d="M512-64c-282.383 0-512 229.617-512 512 0 282.263 229.617 512 512 512 282.323 0 512-229.737 512-512 0-282.383-229.677-512-512-512zM512 862.359c-228.533 0-414.479-185.886-414.479-414.359 0-228.593 185.886-414.479 414.479-414.479 228.533 0 414.479 185.886 414.479 414.479 0 228.472-185.946 414.359-414.479 414.359zM554.526 413.545v-195.765h-83.968v195.765h-173.478v76.077h173.478v189.079h83.908v-189.079h172.574v-76.137h-172.514z" />
<glyph unicode="&#xe602;" d="M933.821 960h-733.707c-110.46 0-200.114-89.589-200.114-200.114v-350.216c0-110.525 89.654-200.114 200.114-200.114h433.963l180.752-273.557 58.216 273.557h60.71c110.525 0 200.114 89.589 200.114 200.114v350.216c0.066 110.525-89.523 200.114-200.048 200.114z" horiz-adv-x="1134" />
<glyph unicode="&#xe603;" d="M1265.957 865.719c0 0-68.901 94.281-269.605 94.281-238.738 0-316.562-298.715-316.562-298.715s-77.897 298.715-316.635 298.715c-200.558 0-269.605-94.281-269.605-94.281s-93.55-65.097-93.55-245.614c0-180.663 168.448-328.85 288.841-429.275 120.32-100.206 390.875-254.83 390.875-254.83s270.629 154.624 390.949 254.757c120.393 100.425 288.841 248.613 288.841 429.275 0 180.59-93.55 245.687-93.55 245.687z" horiz-adv-x="1360" />
<glyph unicode="&#xe604;" d="M512-64c-282.383 0-512 229.677-512 512s229.617 512 512 512c282.323 0 512-229.677 512-512s-229.677-512-512-512zM512 862.419c-228.533 0-414.479-185.886-414.479-414.419 0-228.593 185.886-414.419 414.479-414.419 228.533 0 414.479 185.826 414.479 414.419 0 228.533-185.946 414.419-414.479 414.419zM451.464 416.738c0 92.16 114.748 103.063 114.748 156.913 0 24.154-18.793 44.454-61.681 44.454-39.032 0-71.8-18.793-96.015-48.429l-63.187 71.078c41.382 49.212 103.846 75.656 170.948 75.656 100.653 0 162.334-50.658 162.334-123.241 0-113.965-130.349-122.519-130.349-188.115 0-12.529 6.264-25.781 14.818-32.768l-85.835-24.998c-16.384 18.010-25.781 42.104-25.781 69.451zM451.464 242.718c0 34.334 28.913 63.247 63.247 63.247s63.247-28.853 63.247-63.247-28.853-63.127-63.247-63.127c-34.334 0-63.247 28.732-63.247 63.127z" />
<glyph unicode="&#xe605;" d="M821.12 295.232c-46.528 0-88.832-17.728-120.704-46.784l-343.424 175.040c1.408 9.024 2.304 17.984 2.304 27.392 0 5.248-0.32 10.432-0.768 15.616l346.688 176.768c31.296-26.496 71.744-42.496 115.968-42.496 99.264 0 179.648 80.384 179.648 179.648s-80.448 179.584-179.712 179.584c-99.2 0-179.648-80.384-179.648-179.648 0-5.504 0.32-10.944 0.832-16.256l-346.24-176.512c-31.36 26.624-72 42.944-116.416 42.944-99.2 0.064-179.648-80.384-179.648-179.648 0-99.136 80.448-179.648 179.648-179.648 40 0 76.864 13.248 106.688 35.392l355.648-181.312c-0.128-3.2-0.512-6.4-0.512-9.664 0-99.264 80.448-179.648 179.712-179.648s179.648 80.384 179.648 179.648-80.512 179.584-179.712 179.584z" horiz-adv-x="1001" />
<glyph unicode="&#xe606;" d="M1037.824 599.808c-0.064 0-0.064 0-0.128 0s-0.128 0-0.256 0l-360-2.944-115.264 341.12c-4.48 13.184-16.832 22.016-30.72 22.016-0.128 0-0.256 0-0.32 0-14.016-0.128-26.368-9.216-30.592-22.656l-108.48-343.296-360-4.16c-14.016-0.128-26.368-9.28-30.592-22.784-4.224-13.312 0.64-27.904 12.096-36.032l292.992-209.216-107.328-343.744c-4.16-13.376 0.768-28.032 12.16-36.032 5.696-4.032 12.224-6.080 18.816-6.080 6.784 0 13.504 2.112 19.328 6.4l289.536 214.016 293.76-208.256c5.568-3.968 12.096-6.016 18.688-6.016 6.784 0 13.568 2.112 19.328 6.336 11.264 8.448 15.872 23.168 11.392 36.416l-114.048 341.504 288.32 214.656c8.192 5.888 13.632 15.616 13.632 26.368 0 17.856-14.464 32.384-32.32 32.384z" horiz-adv-x="1070" />
<glyph unicode="&#xe607;" d="M639.934 960.048c19.071 0 37.997-8.524 50.615-24.802 21.623-27.836 16.663-68.097-11.173-89.72l-511.061-397.503 511.013-397.454c27.836-21.72 32.844-61.932 11.173-89.768-21.72-27.932-61.932-32.989-89.816-11.269l-575.979 447.973c-15.555 12.088-24.705 30.773-24.705 50.47 0 19.793 9.054 38.479 24.705 50.567l575.979 448.021c11.751 9.006 25.476 13.484 39.249 13.484z" horiz-adv-x="704" />
<glyph unicode="&#xe608;" d="M64.051-64c-19.071 0-37.997 8.524-50.567 24.754-21.671 27.884-16.663 68.097 11.221 89.768l510.965 397.503-510.965 397.454c-27.884 21.72-32.892 61.932-11.221 89.768 21.72 27.932 61.932 32.989 89.816 11.269l575.979-447.973c15.603-12.088 24.705-30.773 24.705-50.47 0-19.793-9.054-38.479-24.705-50.567l-575.979-448.021c-11.751-9.054-25.524-13.484-39.249-13.484z" horiz-adv-x="704" />
<glyph unicode="&#xe609;" d="M781.312 495.345h-230.159v276.661c0 23.251-18.793 42.165-42.104 42.165s-42.104-18.854-42.104-42.165v-318.825c0-23.251 18.793-42.104 42.104-42.104h272.264c23.311 0 42.165 18.793 42.165 42.104s-18.914 42.165-42.165 42.165zM512-66.409c-282.383 0-512 229.617-512 512 0 282.263 229.617 512 512 512s512-229.737 512-512c0-282.323-229.617-512-512-512zM512 859.949c-228.593 0-414.479-185.886-414.479-414.359 0-228.593 185.886-414.479 414.479-414.479 228.533 0 414.479 185.886 414.479 414.479 0 228.472-185.946 414.359-414.479 414.359z" />
<glyph unicode="&#xe60a;" d="M695.999 828.281v-54.316c13.010-13.294 21.066-31.428 21.066-51.497 0-40.879-33.079-74.015-73.958-74.015s-74.015 33.136-74.015 74.015c0 20.070 8.056 38.203 21.066 51.497v54.316h-328.229v-54.316c12.953-13.294 21.009-31.428 21.009-51.497 0-40.879-33.079-74.015-73.958-74.015-40.822 0-73.901 33.136-73.901 74.015 0 20.070 8.056 38.203 20.952 51.497v54.316h-156.030v-892.281h852.086v892.281h-156.087zM783.678 7.738h-715.186v602.199h715.186v-602.199zM636.388 520.151h85.231v-88.448h-85.231v88.448zM511.815 520.151h85.231v-88.448h-85.231v88.448zM387.213 520.151h85.174v-88.448h-85.174v88.448zM636.388 396.887h85.231v-88.391h-85.231v88.391zM511.815 396.887h85.231v-88.391h-85.231v88.391zM387.213 396.887h85.174v-88.391h-85.174v88.391zM262.612 396.887h85.231v-88.391h-85.231v88.391zM138.010 396.887h85.231v-88.391h-85.231v88.391zM636.388 273.623h85.231v-88.391h-85.231v88.391zM511.815 273.623h85.231v-88.391h-85.231v88.391zM387.213 273.623h85.174v-88.391h-85.174v88.391zM262.612 273.623h85.231v-88.391h-85.231v88.391zM138.010 273.623h85.231v-88.391h-85.231v88.391zM511.815 150.359h85.231v-88.391h-85.231v88.391zM387.213 150.359h85.174v-88.391h-85.174v88.391zM262.612 150.359h85.231v-88.391h-85.231v88.391zM138.010 150.359h85.231v-88.391h-85.231v88.391zM645.071 692.236c13.835 0 25.080 11.188 25.080 25.023v217.605c0 13.892-11.245 25.137-25.080 25.137s-25.080-11.245-25.080-25.137v-217.633c0-13.835 11.245-24.994 25.080-24.994zM208.552 692.236c13.835 0 25.080 11.188 25.080 25.023v217.605c0 13.892-11.245 25.137-25.080 25.137s-25.080-11.245-25.080-25.137v-217.633c0-13.835 11.245-24.994 25.080-24.994z" horiz-adv-x="852" />
<glyph unicode="&#xe60b;" d="M1007.813 685.628l-46.97 274.372-960.842-168.714 140.809-802.423 95.363 16.153v-68.982h975.54v749.594h-203.899zM236.206 85.682l-30.817-5.892-114.429 646.985 805.403 142.333 32.341-183.479h-692.499v-599.947zM1132.536 15.311h-817.188v591.176h817.188v-591.176zM387.005 538.419h673.738v-458.087h-673.738v458.087z" horiz-adv-x="1212" />
<glyph unicode="&#xe60c;" d="M0 960v-1024h918.077v1024h-918.077zM834.953 18.438h-751.863v862.352h751.863v-862.352zM737.305 763.605h-556.498v-88.343l556.498-0.034v88.378zM737.305 582.661l-556.498 0.069v-88.412h556.498v88.343zM737.305 401.751h-556.498v-88.446h556.498v88.446zM737.305 220.807l-556.498 0.034v-88.446l556.498-0.034v88.446z" horiz-adv-x="918" />
<glyph unicode="&#xe60d;" d="M0 960l886.672-512.016-886.672-511.984z" horiz-adv-x="887" />
<glyph unicode="&#xe60e;" d="M512-64l-512 512 512.051 512z" horiz-adv-x="512" />
<glyph unicode="&#xe60f;" d="M0.051 960l512-512-512.051-512z" horiz-adv-x="512" />
<glyph unicode="&#xe610;" d="M512 960c-282.778 0-512-229.274-512-512 0-282.778 229.222-512 512-512s512 229.222 512 512c0 282.726-229.222 512-512 512zM512 12.8c-239.974 0-435.2 195.174-435.2 435.2 0 239.974 195.226 435.2 435.2 435.2 240.026 0 435.2-195.226 435.2-435.2 0-240.026-195.174-435.2-435.2-435.2zM716.8 486.4h-166.349v166.349c0 21.197-17.203 38.4-38.4 38.4s-38.4-17.203-38.4-38.4v-166.349h-166.451c-21.197 0-38.4-17.203-38.4-38.4s17.203-38.4 38.4-38.4h166.451v-166.4c0-21.197 17.203-38.4 38.4-38.4s38.4 17.203 38.4 38.4v166.4h166.349c21.197 0 38.4 17.203 38.4 38.4s-17.203 38.4-38.4 38.4z" />
<glyph unicode="&#xe611;" d="M512 883.2c239.974 0 435.2-195.226 435.2-435.2s-195.226-435.2-435.2-435.2c-239.974 0-435.2 195.226-435.2 435.2s195.226 435.2 435.2 435.2zM512 960c-282.778 0-512-229.274-512-512 0-282.829 229.222-512 512-512s512 229.171 512 512c0 282.726-229.222 512-512 512v0zM716.8 409.6h-409.6c-21.197 0-38.4 17.203-38.4 38.4s17.203 38.4 38.4 38.4h409.6c21.197 0 38.4-17.203 38.4-38.4s-17.203-38.4-38.4-38.4z" />
<glyph unicode="&#xe612;" d="M331.78 892.237c-34.563 41.033-85.641 67.763-143.529 67.763-103.915 0-188.251-84.335-188.251-188.364 0-36.492 10.67-70.147 28.66-98.978 68.161 107.831 175.992 187.626 303.119 219.579zM879.393 672.771c17.821 28.831 28.66 62.372 28.66 98.864 0 104.029-84.279 188.364-188.307 188.364-57.888 0-108.966-26.731-143.472-67.707 127.071-31.839 234.845-111.577 303.119-219.522zM629.792 279.868l-139.443 139.443v147.899c0 20.091-16.118 36.436-36.209 36.436s-36.322-16.345-36.322-36.436v-162.882c0-5.051 0.851-9.705 2.724-14.075 1.589-3.632 3.916-7.094 6.867-10.216 0.397-0.511 0.624-0.908 0.965-1.419l149.999-150.169c7.435-7.037 16.345-10.613 25.88-10.613 9.194 0 18.331 3.519 25.596 10.613 14.188 14.188 14.188 37.344-0.057 51.419zM734.274 77.316c92.054 79.228 150.964 196.31 150.964 327.013 0 77.752-21.112 150.51-57.264 213.619-60.556 105.618-164.358 183.313-287.456 208.625-27.866 5.675-56.753 8.683-86.379 8.683-29.795 0-58.569-3.065-86.492-8.683-123.155-25.312-227.013-102.951-287.456-208.795-36.152-62.996-57.151-135.697-57.151-213.563 0-130.589 58.683-247.558 150.737-326.786l-21.396-29.512-21.112-29.568-17.991-24.801c-11.578-16.345-7.945-39.046 8.172-50.794 6.47-4.711 13.961-6.81 21.282-6.81 11.351 0 22.474 5.221 29.568 15.096l17.991 25.028 21.396 29.512 20.999 29.625c64.983-39.103 140.578-61.918 221.451-61.918 80.817 0 156.299 22.758 221.281 61.691l42.508-58.91 18.218-25.028c6.981-9.875 18.048-15.096 29.512-15.096 7.094 0 14.642 2.1 20.999 6.81 16.402 11.805 20.034 34.393 8.116 50.794l-17.764 24.801-21.226 29.455-21.51 29.512zM132.065 404.328c0 66.345 20.091 127.922 54.426 179.227 42.168 62.599 105.788 109.42 180.135 130.419 27.809 7.889 57.151 12.372 87.514 12.372 30.193 0 59.591-4.484 87.287-12.202 74.404-21.112 138.024-67.877 180.192-130.533 34.449-51.305 54.597-112.939 54.597-179.284 0-177.695-144.437-322.132-322.018-322.132-177.751 0-322.132 144.437-322.132 322.132z" horiz-adv-x="908" />
<glyph unicode="&#xe613;" d="M1046.346 723.632h-436.060l178.695 178.624c6.101 6.101 9.86 14.613 9.86 23.906-0.071 18.657-15.181 33.838-33.696 33.838-9.364 0-17.877-3.902-23.977-10.073l-178.624-178.553-178.624 178.553c-6.101 6.172-14.542 10.073-23.977 10.073-18.586 0-33.625-15.181-33.625-33.767 0-9.364 3.76-17.806 9.86-23.906l178.695-178.624h-436.131c-43.485-0.071-78.742-34.831-78.742-77.749v-632.277c0-42.847 35.257-77.678 78.742-77.678h967.604c43.485 0 78.671 34.831 78.671 77.678v632.277c0.071 42.918-35.115 77.678-78.671 77.678zM855.095 161.088c0-74.627-60.511-135.067-134.996-135.067h-506.36c-74.557 0-134.996 60.511-134.996 135.067v337.597c0 74.557 60.44 134.925 134.996 134.925h506.36c74.557 0 134.996-60.44 134.996-134.925v-337.597zM990.162 318.643c-37.385 0-67.463 30.22-67.463 67.463 0 37.314 30.078 67.463 67.463 67.463 37.243 0 67.463-30.149 67.463-67.463 0-37.243-30.22-67.463-67.463-67.463zM990.162 498.686c-37.385 0-67.463 30.22-67.463 67.463 0 37.314 30.078 67.463 67.463 67.463 37.243 0 67.463-30.149 67.463-67.463s-30.22-67.463-67.463-67.463z" horiz-adv-x="1125" />
<glyph unicode="&#xe614;" d="M615.424 448l387.145 387.145c28.599 28.599 28.599 74.825 0 103.424s-74.825 28.599-103.424 0l-387.145-387.145-387.145 387.145c-28.599 28.599-74.825 28.599-103.424 0s-28.599-74.825 0-103.424l387.145-387.145-387.145-387.145c-28.599-28.599-28.599-74.825 0-103.424 14.263-14.263 32.987-21.431 51.712-21.431s37.449 7.168 51.712 21.431l387.145 387.145 387.145-387.145c14.263-14.263 32.987-21.431 51.712-21.431s37.449 7.168 51.712 21.431c28.599 28.599 28.599 74.825 0 103.424l-387.145 387.145z" />
<glyph unicode="&#xe615;" d="M356.070 687.943l391.386-225.984-391.386-226.037zM511.948-64c-282.316 0-511.948 229.684-511.948 511.974 0 282.343 229.631 512.026 511.948 512.026s511.974-229.684 511.974-512.026c0-282.29-229.657-511.974-511.974-511.974zM511.948 881.287c-238.893 0-433.235-194.368-433.235-433.314 0-238.893 194.315-433.287 433.235-433.287s433.261 194.368 433.261 433.287c0 238.946-194.342 433.314-433.261 433.314z" />
<glyph unicode="&#xe616;" d="M512.028 960c-282.852 0-512.028-229.291-512.028-512 0-282.766 229.177-512 512.028-512 282.795 0 511.972 229.234 511.972 512 0 282.709-229.177 512-511.972 512zM512.028-35.556c-266.667 0-483.584 216.917-483.584 483.556s216.917 483.556 483.584 483.556c266.638 0 483.527-216.917 483.527-483.556s-216.889-483.556-483.527-483.556zM456.96 647.879c-15.502 18.517-38.514 30.521-64.54 30.521-46.763 0-84.736-37.973-84.736-84.821 0-16.384 4.836-31.545 12.914-44.487 30.72 48.498 79.246 84.423 136.363 98.788zM631.552 678.428c-25.998 0-49.010-12.004-64.512-30.464 57.173-14.393 105.671-50.261 136.334-98.816 8.050 12.942 12.885 28.046 12.885 44.43 0.028 46.876-37.916 84.85-84.708 84.85zM528.356 435.058v66.532c0 9.131-7.225 16.412-16.27 16.412s-16.384-7.282-16.384-16.412v-73.244c0-2.276 0.455-4.324 1.308-6.343 0.683-1.621 1.792-3.186 3.044-4.551 0.142-0.228 0.256-0.455 0.455-0.654l67.499-67.556c3.271-3.186 7.282-4.779 11.605-4.779 4.124 0 8.277 1.593 11.435 4.779 6.457 6.343 6.457 16.782 0 23.097l-62.692 62.72zM706.048 428.345c0 34.958-9.5 67.726-25.771 96.171-27.278 47.502-74.012 82.46-129.28 93.867-12.601 2.56-25.657 3.897-38.912 3.897-13.369 0-26.396-1.337-38.969-3.897-55.296-11.378-102.087-46.364-129.308-93.952-16.242-28.388-25.685-61.099-25.685-96.142 0-58.766 26.34-111.388 67.783-147.029l-9.586-13.284-9.5-13.369-8.107-11.122c-5.319-7.339-3.584-17.55 3.612-22.841 2.958-2.133 6.315-3.1 9.614-3.1 5.092 0 10.098 2.446 13.34 6.77l8.050 11.321 19.115 26.567c29.212-17.55 63.26-27.847 99.669-27.847 36.352 0 70.372 10.268 99.527 27.79l9.614-13.227 9.557-13.284 8.164-11.321c3.157-4.324 8.22-6.77 13.284-6.77 3.214 0 6.599 0.967 9.5 3.1 7.339 5.348 8.988 15.502 3.612 22.841l-7.993 11.122-9.557 13.34-9.614 13.284c41.358 35.612 67.84 88.263 67.84 147.115zM512.085 283.42c-79.929 0-144.953 64.967-144.953 144.924 0 29.867 9.102 57.543 24.576 80.668 18.916 28.132 47.559 49.209 81.038 58.709 12.516 3.499 25.6 5.49 39.339 5.49 13.625 0 26.738-1.991 39.196-5.49 33.508-9.472 62.18-30.492 81.067-58.681 15.559-23.068 24.661-50.83 24.661-80.697 0-79.957-65.052-144.924-144.924-144.924z" />
<glyph unicode="&#xe617;" d="M512.039 920.615c260.569 0 472.576-212.007 472.576-472.615 0-260.588-212.007-472.615-472.576-472.615-260.628 0-472.655 212.027-472.655 472.615 0 260.608 212.027 472.615 472.655 472.615zM512.039 960c-282.9 0-512.039-229.218-512.039-512 0-282.801 229.14-512 512.039-512 282.722 0 511.961 229.199 511.961 512 0 282.782-229.238 512-511.961 512v0zM450.855 670.129c-17.27 20.519-42.772 33.871-71.66 33.871-52.086 0-94.228-42.201-94.228-94.188 0-18.176 5.455-35.092 14.454-49.467 34.048 53.957 87.847 93.854 151.434 109.785zM724.736 560.443c8.881 14.434 14.316 31.193 14.316 49.369 0 51.988-42.122 94.188-94.306 94.188-28.849 0-54.351-13.351-71.621-33.831 63.567-15.931 117.524-55.808 151.611-109.726zM599.926 363.934l-69.73 69.73v73.984c0 10.063-8.034 18.137-18.156 18.137s-18.156-8.074-18.156-18.137v-81.526c0-2.501 0.453-4.884 1.378-7.010 0.729-1.831 2.009-3.564 3.505-5.1 0.118-0.197 0.276-0.532 0.492-0.689l74.929-75.067c3.761-3.545 8.271-5.376 12.839-5.376 4.687 0 9.236 1.851 12.879 5.376 7.010 7.070 7.010 18.609 0.020 25.679zM652.229 262.656c45.844 39.601 75.461 98.107 75.461 163.466 0 38.873-10.614 75.284-28.613 106.831-30.503 52.874-82.314 91.707-143.813 104.369-13.804 2.836-28.416 4.372-43.225 4.372-14.769 0-29.302-1.536-43.303-4.372-61.538-12.662-113.31-51.495-143.655-104.428-18.078-31.527-28.574-67.919-28.574-106.772 0-65.339 29.42-123.845 75.343-163.426l-10.496-14.809-19.574-27.156c-6.046-8.113-3.998-19.535 3.919-25.344 3.23-2.343 7.070-3.387 10.535-3.387 5.77 0 11.264 2.58 14.887 7.424l8.999 12.662 10.693 14.651 10.535 14.868c32.354-19.515 70.223-30.976 110.69-30.976 40.507 0 78.198 11.461 110.494 30.917l10.89-14.809 10.535-14.651 8.96-12.662c3.623-4.844 9.236-7.424 14.927-7.424 3.387 0 7.385 1.044 10.496 3.387 8.153 5.888 10.082 17.231 4.076 25.344l-8.921 12.426-10.654 14.69-10.614 14.809zM350.996 426.122c0 33.241 10.122 64 27.274 89.639 21.071 31.35 52.933 54.686 90.112 65.3 13.844 3.84 28.574 6.144 43.658 6.144s29.893-2.284 43.658-6.105c37.278-10.516 69.002-33.95 90.073-65.26 17.27-25.698 27.274-56.478 27.274-89.718 0-88.852-72.231-161.024-161.004-161.024s-161.044 72.172-161.044 161.024z" />
<glyph unicode="&#xe618;" d="M984.539 448c0-56.756-46.010-102.766-102.766-102.766s-102.766 46.010-102.766 102.766c0 56.756 46.010 102.766 102.766 102.766s102.766-46.010 102.766-102.766zM614.766 448c0-56.756-46.010-102.766-102.766-102.766s-102.766 46.010-102.766 102.766c0 56.756 46.010 102.766 102.766 102.766s102.766-46.010 102.766-102.766zM244.992 448c0-56.756-46.010-102.766-102.766-102.766s-102.766 46.010-102.766 102.766c0 56.756 46.010 102.766 102.766 102.766s102.766-46.010 102.766-102.766z" />
<glyph unicode="&#xe619;" d="M36.571-64c-9.362 0-18.725 3.621-25.856 10.715-14.299 14.299-14.299 37.413 0 51.675l449.573 449.646-449.573 449.536c-14.299 14.299-14.299 37.413 0 51.675 14.299 14.373 37.413 14.373 51.712 0l475.429-475.355c6.875-6.839 10.715-16.128 10.715-25.856 0-9.691-3.84-19.017-10.715-25.856l-475.429-475.465c-7.131-7.095-16.494-10.715-25.856-10.715z" horiz-adv-x="549" />
<glyph unicode="&#xe61a;" d="M512 960c9.362 0 18.725-3.621 25.856-10.715 14.299-14.299 14.299-37.413 0-51.675l-449.573-449.646 449.573-449.536c14.299-14.299 14.299-37.413 0-51.675-14.299-14.373-37.413-14.373-51.712 0l-475.429 475.355c-6.875 6.839-10.715 16.128-10.715 25.856 0 9.691 3.84 19.017 10.715 25.856l475.429 475.465c7.131 7.095 16.494 10.715 25.856 10.715z" horiz-adv-x="549" />
<glyph unicode="&#xe61b;" d="M53.303 269.055l119.558 600.637c5.693 25.62 31.313 45.546 59.779 39.853l597.79-119.558c25.62-5.693 48.393-34.159 42.699-62.626l-48.393-244.809 51.239-11.386 48.393 244.809c8.54 56.932-31.313 111.018-85.399 122.405l-597.79 119.558c-54.086 11.386-108.172-25.62-119.558-79.705l-119.558-600.637c-11.386-54.086 25.62-113.865 79.705-125.251l284.662-56.932 8.54 37.006 2.847 14.233-284.662 56.932c-28.466 5.693-45.546 37.006-39.853 65.472zM856.049 226.355l165.104 170.797-230.576 34.159c-19.926 2.847-39.853 14.233-48.393 34.159l-99.632 210.65-99.632-210.65c-8.54-17.080-28.466-31.313-48.393-34.159l-230.576-34.159 170.797-170.797c14.233-14.233 19.926-34.159 17.080-54.086l-39.853-236.269 202.11 108.172c11.386 5.693 19.926 8.54 31.313 8.54s22.773-2.847 31.313-8.54l202.11-108.172-39.853 236.269c-2.847 19.926 2.847 39.853 17.080 54.086z" horiz-adv-x="1021" />
<glyph unicode="&#xe61c;" d="M419.068 882.849h1.753v77.151h-1.753c-201.644 0-376.986-143.781-417.315-341.918l75.397-15.781c33.315 163.068 177.096 280.548 341.918 280.548zM844.65 534.316c1.324 8.43 2.094 17.077 2.254 25.903 0 94.685-75.397 170.082-168.329 170.082-81.552 0-149.594-59.415-165.037-136.767h-383.785c-15.781 0-29.808-8.767-35.068-22.795s-1.753-31.562 8.767-42.082l275.288-280.354v-39.781c-149.778 17.888-274.246 129.474-303.342 279.806l-75.397-15.781c37.733-185.385 193.662-323.175 378.74-341.581v-117.816h-149.041c-21.041 0-38.575-17.534-38.575-38.575s17.534-38.575 38.575-38.575h373.479c21.041 0 38.575 17.534 38.575 38.575s-17.534 38.575-38.575 38.575h-147.288v117.309c211.011 18.143 378.545 190.709 388.76 403.857zM455.89 207.954v38.726l152.533 157.242c21.858-10.549 46.005-15.539 70.152-15.539 18.030 0 35.327 2.85 51.52 8.128-52.392-102.753-154.193-175.998-274.205-188.557zM678.575 653.151c50.849 0 91.178-42.082 91.178-92.932 0-1.765-0.063-3.517-0.162-5.26h-1.591c0-4.685-0.122-9.341-0.303-13.982-8.98-41.798-46.387-73.689-89.122-73.689-2.818 0-5.593 0.126-8.337 0.357l59.186 61.013c12.274 10.521 14.027 28.055 8.767 42.082s-19.288 22.795-35.068 22.795h-109.437c13.487 34.672 47.099 59.616 84.889 59.616z" horiz-adv-x="847" />
<glyph unicode="&#xe61d;" d="M634.468 175.97c-61.834-34.352-85.88-111.644-51.528-173.478s111.644-84.162 173.478-51.528c61.834 34.352 85.88 111.644 51.528 173.478s-111.644 85.88-173.478 51.528zM850.885 442.199c-56.681 12.023-115.079 13.741-170.042 6.87-11.839-2.089-23.529-4.55-35.085-7.36-39.254 48.181-82.004 88.94-112.746 116.031 35.433 27.63 67.43 58.947 96.302 94.007 48.093 58.398 84.162 123.667 108.209 195.806v1.718c3.435 6.87 1.718 13.741-1.718 20.611s-8.588 12.023-17.176 13.741l-60.116 17.176c-6.87 1.718-13.741 1.718-20.611-1.718s-12.023-8.588-13.741-15.458c-20.611-60.116-49.81-111.644-89.315-159.737s-84.162-85.88-135.69-115.079c-49.81-29.199-104.774-48.093-166.607-58.398-60.116-8.588-121.95-8.588-182.066 5.153-6.87 1.718-13.741 0-20.611-3.435-5.153-5.153-10.306-10.306-12.023-17.176l-17.176-60.116c-1.718-8.588 0-15.458 3.435-22.329 3.435-8.588 10.306-12.023 17.176-13.741 73.857-17.176 149.431-18.894 225.006-5.153 53.657 7.486 105.5 23.14 155.53 45.629 6.163-38.64 16.661-91.43 33.808-145.594-19.202-16.792-37.085-35.045-53.648-54.619-37.787-46.375-65.269-96.186-84.162-152.866v-1.718c-1.718-5.153-1.718-10.306 1.718-15.458s6.87-8.588 13.741-10.306l46.375-12.023c5.153-1.718 10.306-1.718 15.458 1.718s8.588 6.87 10.306 12.023c15.458 46.375 37.787 87.598 68.704 123.667 5.628 6.566 11.374 12.898 17.24 19.009 8.27-16.832 17.381-33.050 27.417-48.208 0 0 48.093-49.81 142.561 3.435 96.186 51.528 82.445 120.232 82.445 120.232-5.923 13.607-12.773 27.065-20.323 40.282 41.453 5.578 83.948 3.215 125.096-5.93 5.153-1.718 10.306-1.718 15.458 1.718s8.588 8.588 10.306 13.741l12.023 46.375c1.718 6.87 1.718 12.023-1.718 17.176s-8.588 8.588-13.741 10.306zM924.742 952.326c-5.153 8.588-17.176 10.306-25.764 3.435-8.588-5.153-10.306-17.176-3.435-25.764 24.046-30.917 32.634-73.857 25.764-116.797s-29.199-80.727-60.116-103.056c-8.588-5.153-12.023-17.176-5.153-25.764 3.435-5.153 10.306-8.588 15.458-8.588 3.435 0 6.87 1.718 10.306 5.153 39.505 27.482 66.986 73.857 75.574 127.102s-3.435 104.774-32.634 144.278zM801.075 735.908c3.435 0 6.87 0 10.306 0 27.482 17.176 48.093 48.093 53.246 84.162 5.153 37.787-3.435 73.857-25.764 97.903-6.87 8.588-18.894 8.588-27.482 1.718s-8.588-18.894-1.718-27.482c15.458-15.458 20.611-39.505 17.176-65.269-5.153-24.046-17.176-46.375-36.070-56.681-8.588-5.153-12.023-17.176-6.87-25.764 5.153-5.153 10.306-8.588 17.176-8.588z" horiz-adv-x="960" />
<glyph unicode="&#xe61e;" d="M965.72 478.219h-6.907l-127.784-94.975h-4.197c-6.981 28.247-15.937 56.459-26.885 84.614-6.907 17.268-24.175 31.083-44.897 34.536-16.751 2.879-33.512 5.513-50.281 7.955 71.34 42.246 118.771 119.752 117.627 207.897 0 132.965-108.789 241.754-241.754 241.754-123.36 0-225.894-93.646-240.065-213.356-25.611 58.492-84.006 99.386-151.922 99.386-91.521 0-165.774-74.253-165.774-165.774 0-86.863 66.89-158.161 151.943-165.195-28.224-3.608-56.425-7.825-84.598-12.667-20.722-3.454-37.99-17.268-44.897-34.536-60.438-155.413-60.438-312.553 0-467.966 6.907-17.268 24.175-31.083 44.897-34.536 108.789-18.995 221.032-29.356 331.548-29.356s221.032 10.361 333.275 29.356c20.722 3.454 37.99 17.268 44.897 34.536 19.089 49.089 32.143 98.349 39.172 147.672l119.695-88.961h6.907c27.629 0 48.351 24.175 48.351 51.804v316.007c0 29.356-22.449 51.804-48.351 51.804zM580.641 882.293c91.521 0 164.047-72.526 164.047-164.047 0-89.794-74.253-164.047-164.047-164.047s-164.047 74.253-164.047 164.047 74.253 164.047 164.047 164.047zM102.314 680.256c0 46.624 37.99 86.341 86.341 86.341s86.341-39.717 86.341-86.341-39.717-86.341-86.341-86.341-86.341 37.99-86.341 86.341zM350.519 644.372c14.539-44.958 41.948-84.262 77.838-113.515-63.274 0.186-126.55-2.709-189.748-8.701 55.964 17.678 99.106 64.262 111.91 122.216zM554.739 219.197l-189.949-124.331c-10.361-6.907-24.175-3.454-24.175 17.268v243.481c0 20.722 12.088 22.449 24.175 17.268l189.949-124.331c12.088-6.907 12.088-20.722 0-29.356zM691.157 718.246c0-58.175-49.48-105.336-110.516-105.336s-110.516 47.16-110.516 105.336c0 58.175 49.48 105.336 110.516 105.336s110.516-47.16 110.516-105.336z" horiz-adv-x="1014" />
<glyph unicode="&#xe61f;" d="M798.896 590.995c-99.242 17.013-198.483 28.355-297.725 28.355s-198.483-8.506-297.725-28.355c-11.342-2.835-22.684-11.342-28.355-22.684-53.874-141.774-53.874-283.548 0-425.321 2.835-11.342 14.177-19.848 28.355-22.684 99.242-17.013 198.483-28.355 297.725-28.355s198.483 8.506 297.725 28.355c14.177 2.835 22.684 11.342 28.355 22.684 53.874 141.774 53.874 283.548 0 425.321-5.671 11.342-14.177 19.848-28.355 22.684zM983.202 676.059c-5.671 25.519-28.355 45.368-53.874 51.039-110.436 13.522-222.659 21.652-333.83 24.425l98.486 77.652c11.342 8.506 11.342 22.684 5.671 34.026-8.506 11.342-22.684 11.342-34.026 5.671l-110.584-93.571c-11.342-5.671-28.355-5.671-36.861 5.671l-164.458 170.129c-8.506 11.342-22.684 11.342-34.026 2.835-8.506-11.342-11.342-25.519-2.835-36.861l159.931-164.635c-128.375-1.234-258.773-9.668-386.769-25.342-25.519-2.835-48.203-22.684-53.874-51.039-48.203-209.825-48.203-422.486 0-632.311 5.671-25.519 28.355-45.368 53.874-51.039 68.051-8.506 133.267-14.177 201.319-19.848-2.835 0-5.671-2.835-5.671-2.835 0-17.013 99.242-34.026 224.003-34.026s224.003 14.177 224.003 34.026c0 2.835-2.835 5.671-5.671 8.506 68.051 5.671 136.103 11.342 201.319 19.848 25.519 2.835 48.203 22.684 53.874 51.039 48.203 204.154 48.203 416.815 0 626.64zM920.821 60.761c-275.041-34.026-550.082-34.026-822.288 0-45.368 201.319-45.368 402.638 0 601.121 275.041 34.026 550.082 34.026 822.288 0 45.368-201.319 45.368-402.638 0-601.121z" horiz-adv-x="1019" />
<glyph unicode="&#xe620;" d="M877.372 674.283c-13.832 15.561-38.038 15.561-53.599 1.729s-15.561-38.038-1.729-53.599c72.618-76.076 115.843-190.19 115.843-311.22 0-119.301-41.496-233.415-115.843-311.22-13.832-15.561-13.832-39.767 1.729-53.599 6.916-6.916 17.29-10.374 25.935-10.374 10.374 0 20.748 3.458 27.664 8.645 86.45 91.637 136.591 224.77 136.591 364.819s-50.141 273.182-136.591 364.819zM775.361 584.375c-15.561 15.561-39.767 15.561-53.599 0-15.561-15.561-15.561-39.767 0-53.599 53.599-51.87 84.721-131.404 84.721-217.854s-31.122-165.984-84.721-217.854c-13.832-13.832-13.832-38.038 0-53.599 8.645-8.645 17.29-12.103 27.664-12.103s20.748 3.458 25.935 8.645c67.431 67.431 107.198 165.984 107.198 273.182s-38.038 205.751-107.198 273.182zM675.079 494.467c-17.29 13.832-39.767 10.374-53.599-5.187-13.832-17.29-10.374-39.767 5.187-53.599 32.851-27.664 51.87-72.618 51.87-122.759 0-48.412-19.019-93.366-51.87-121.030-17.29-13.832-19.019-38.038-5.187-53.599 8.645-8.645 19.019-13.832 29.393-13.832 8.645 0 17.29 1.729 25.935 8.645 48.412 41.496 77.805 108.927 77.805 179.816 0 72.618-29.393 140.049-79.534 181.545zM510.824 843.744l153.881-152.172c12.103-12.103 32.851-12.103 44.954 0s12.103 32.851 0 44.954l-210.938 214.396c-12.103 12.103-32.851 12.103-44.954 0-8.645-8.645-6.916-24.206-6.916-41.496v-555.009c-70.889 51.87-188.461 53.599-292.201-6.916-129.675-76.076-190.19-214.396-133.133-311.22 55.328-96.824 205.751-114.114 335.426-39.767 100.282 58.786 159.068 153.881 153.881 240.331v606.898z" horiz-adv-x="1014" />
<glyph unicode="&#xe621;" d="M348.004 561.797l17.672 53.015c11.009 19.011 24.546 37.058 40.329 53.829 54.948 54.948 131.265 88.527 213.687 88.527 100.738 3.053 192.318-42.737 247.266-119.054 3.053-3.053 3.053-3.053 6.105-6.105l48.843 42.737c-3.053 6.105-3.053 3.053-6.105 9.158-67.159 91.58-177.055 143.475-296.109 140.423-97.685 0-192.318-39.685-256.424-109.896-14.391-14.391-27.076-29.711-38.116-45.776l-65.674-21.382c-9.158-3.053-21.369 0-30.527 6.105l-109.896 79.369 3.053-131.265c0-6.105 0-12.211-3.053-18.316s-6.105-12.211-12.211-15.263l-106.843-76.317 128.212-42.737c12.211-3.053 21.369-9.158 24.421-21.369l45.79-128.212 76.317 109.896c6.105 9.158 18.316 15.263 30.527 15.263l131.265-3.053-82.422 106.843c-9.158 9.158-9.158 21.369-6.105 33.579zM888.326 888.432c-222.845 137.37-515.901 70.211-662.429-143.475l48.843-39.685c128.212 189.265 381.583 247.266 580.007 128.212 167.897-100.738 244.213-302.214 192.318-488.427-3.053-9.158 0 0-3.053-9.158l54.948-33.579c3.053 6.105 3.053 9.158 6.105 15.263 67.159 216.739-21.369 451.795-216.739 570.849zM903.589 351.163l-18.316 183.16-128.212-122.107c-6.105-6.105-12.211-9.158-21.369-12.211s-15.263-3.053-24.421 0l-174.002 39.685 76.317-167.897c6.105-12.211 6.105-30.527-3.053-42.737l-88.527-161.791 180.107 21.369c15.263 3.053 33.579-3.053 42.737-15.263l116.001-137.37 33.579 177.055c3.053 15.263 15.263 30.527 30.527 36.632l164.844 73.264-161.791 91.58c-15.263 9.158-24.421 21.369-24.421 36.632z" horiz-adv-x="1127" />
<glyph unicode="&#xe622;" d="M950.249 960h-771.546c-39.712 0-70.914-34.039-70.914-73.751h768.709c39.712 0 70.914-34.039 70.914-73.751v-765.873c39.712 0 70.914 34.039 70.914 73.751v765.873c2.837 39.712-28.366 73.751-68.078 73.751zM842.46 849.374h-771.546c-39.712 0-70.914-34.039-70.914-73.751v-765.873c0-39.712 31.202-73.751 70.914-73.751h771.546c39.712 0 70.914 34.039 70.914 73.751v765.873c0 42.548-31.202 73.751-70.914 73.751zM842.46 12.587h-771.546v765.873h771.546v-765.873zM164.521 216.82h207.432l-45.748-79.424c-8.51-22.693-5.673-45.385 28.366-45.385h402.792c34.039 0 39.712 25.529 28.366 45.385l-207.069 354.571c-11.346 19.856-34.039 19.856-48.222 0l-121.41-210.781-102.679 159.723c-8.51 11.346-22.693 11.346-31.202 0l-127.645-198.56c-5.673-11.346-2.837-25.529 17.019-25.529zM394.283 514.659c39.712 0 73.751 34.039 73.751 76.587s-31.202 76.587-73.751 76.587c-39.712 0-73.751-34.039-73.751-76.587s31.202-76.587 73.751-76.587z" horiz-adv-x="1019" />
<glyph unicode="&#xe623;" d="M512 960c-282.721 0-512-229.279-512-512s229.279-512 512-512 512 229.279 512 512-229.279 512-512 512zM512 13.576c-239.623 0-434.424 194.801-434.424 434.424s194.801 434.424 434.424 434.424 434.424-194.801 434.424-434.424-194.801-434.424-434.424-434.424zM710.249 472.135l-294.788 191.354c-17.239 8.62-37.926 5.172-37.926-25.859v-377.535c0-31.030 22.411-36.202 37.926-25.859l293.064 191.354c17.239 12.067 17.239 34.478 1.724 46.545z" />
<glyph unicode="&#xe624;" d="M512 960c-281.946 0-512-230.054-512-512s230.054-512 512-512 512 230.054 512 512-230.054 512-512 512zM512 10.378c-242.162 0-437.622 197.189-437.622 437.622s197.189 437.622 437.622 437.622 437.622-197.189 437.622-437.622-195.459-437.622-437.622-437.622zM835.459 512l-295.784 192c-17.297 8.649-38.054 5.189-38.054-25.946v-378.811c0-31.135 22.486-36.324 38.054-25.946l295.784 192c17.297 12.108 15.568 34.595 0 46.703zM529.297 183.351c-70.919-3.459-140.108 20.757-192 69.189-51.892 46.703-83.027 112.432-86.486 183.351s20.757 140.108 69.189 192c27.676 32.865 64 55.351 103.784 70.919l-25.946 70.919c-50.162-19.027-96.865-50.162-133.189-89.946-60.541-67.459-93.405-153.946-88.216-245.622 3.459-89.946 43.243-174.703 110.703-235.243 62.27-57.081 143.568-88.216 228.324-88.216 5.189 0 10.378 0 17.297-1.73 89.946 3.459 174.703 43.243 235.243 110.703l-55.351 50.162c-46.703-51.892-112.432-83.027-183.351-86.486z" />
<glyph unicode="&#xe625;" d="M748.375 459.339l-303.537 237.247c-12.211 8.722-27.911 10.467-40.123 3.489s-20.934-20.934-20.934-34.889v-474.494c0-15.7 8.722-27.911 20.934-34.889 5.233-1.744 10.467-3.489 15.7-3.489 6.978 0 15.7 3.489 22.678 8.722l305.281 238.991c8.722 6.978 13.956 17.445 13.956 29.656s-5.233 22.678-13.956 29.656zM942.010 445.383c0-226.78-195.38-434.371-434.371-434.371s-432.627 195.38-432.627 436.116 177.935 436.116 439.605 436.116v75.012c-296.559 0-514.617-230.269-514.617-511.128s225.036-511.128 507.639-511.128c280.859 0 511.128 230.269 509.383 509.383h-75.012zM835.598 701.819l94.201 88.968-45.356 47.101-94.201-88.968zM654.174 947.789l-64.545 12.211-22.678-118.624 62.801-12.211zM798.964 900.688l-61.056 24.422-45.356-111.646 61.056-26.167zM880.954 600.641l123.857 41.867-20.934 61.056-122.112-40.123zM891.421 485.506l120.368-3.489 3.489 66.29-123.857 3.489z" horiz-adv-x="1017" />
<glyph unicode="&#xe626;" d="M511.137-64c-281.47 0-511.137 229.666-511.137 511.137s229.666 512.863 511.137 512.863c82.887 0 164.047-20.722 236.573-56.985l-34.536-65.619c-62.165 32.809-131.238 48.351-202.037 48.351-241.754 0-438.61-196.857-438.61-438.61s196.857-438.61 438.61-438.61 438.61 181.315 438.61 440.337h72.526c0-293.558-229.666-512.863-511.137-512.863zM842.685 813.221l126.057-124.331c10.361-10.361 25.902-10.361 36.263 0s10.361 25.902 0 36.263l-172.681 172.681c-10.361 10.361-25.902 10.361-36.263 0-6.907-6.907-5.18-18.995-5.18-32.809v0 0-448.971c-56.985 43.17-151.96 43.17-236.573-5.18-103.609-60.438-151.96-172.681-107.062-250.388s165.774-93.248 271.11-32.809c81.16 46.624 129.511 124.331 124.331 195.13v490.415zM217.578 431.595l-74.253 20.722 3.454 13.815c51.804 177.862 217.578 302.192 404.074 302.192 36.263 0 72.526-5.18 107.062-13.815l13.815-3.454-20.722-74.253-13.815 3.454c-29.356 6.907-58.712 12.088-88.067 12.088-151.96 0-286.651-101.882-329.821-246.934l-1.727-13.815zM353.997 357.342l-74.253 17.268 3.454 13.815c31.083 126.057 145.052 214.125 274.563 214.125 18.995 0 39.717-1.727 58.712-6.907l13.815-3.454-17.268-74.253-13.815 3.454c-13.815 3.454-27.629 5.18-43.17 5.18-94.975 0-176.135-63.892-200.31-155.413l-1.727-13.815z" horiz-adv-x="1022" />
<glyph unicode="&#xe627;" d="M654.405 527.548l-306.831 190.733c-16.585 11.057-38.699 5.528-38.699-24.878v-378.701c0-30.407 22.114-35.935 38.699-24.878l306.831 190.733c19.35 13.821 19.35 35.935 0 46.992zM820.259 873.079c-185.204 127.155-442.279 110.57-621.955-22.114-174.147-129.919-240.489-359.352-171.383-563.906 71.87-207.318 281.953-331.709 494.8-337.238 41.464 0 41.464 55.285 5.528 55.285-193.497 2.764-370.409 113.334-442.279 295.774-69.106 176.912-2.764 373.173 138.212 494.8 149.269 129.919 373.173 138.212 541.792 46.992 187.969-102.277 270.896-320.652 210.083-522.442-11.057-33.171 44.228-49.756 52.521-13.821 63.578 218.375-19.35 439.515-207.318 566.67zM939.122 217.953h-146.505v140.976c0 24.878-22.114 46.992-49.756 46.992s-49.756-22.114-49.756-46.992v-140.976h-146.505c-27.642 0-49.756-22.114-49.756-46.992s22.114-46.992 49.756-46.992h146.505v-140.976c0-24.878 22.114-46.992 49.756-46.992s49.756 22.114 49.756 46.992v140.976h146.505c27.642 0 49.756 22.114 49.756 46.992s-22.114 46.992-49.756 46.992z" horiz-adv-x="1049" />
<glyph unicode="&#xe628;" d="M683.612 684.853h-624.044c-34.039 0-59.568-25.529-59.568-59.568v-629.717c0-31.202 25.529-59.568 59.568-59.568h624.044c34.039 0 59.568 25.529 59.568 59.568v629.717c-2.837 34.039-28.366 59.568-59.568 59.568zM683.612-1.596h-624.044v626.881h624.044v-626.881zM967.269 960h-570.15c-28.366 0-53.895-22.693-53.895-53.895h572.986c28.366 0 53.895-22.693 53.895-53.895v-555.967c28.366 0 53.895 22.693 53.895 53.895v555.967c-2.837 28.366-25.529 53.895-56.731 53.895zM833.95 826.681h-572.986c-28.366 0-53.895-22.693-53.895-53.895h572.986c28.366 0 53.895-22.693 53.895-53.895v-555.967c28.366 0 53.895 22.693 53.895 53.895v555.967c-2.837 28.366-25.529 53.895-53.895 53.895zM249.618 86.338l303.512 195.723c17.019 11.346 17.019 34.039 0 45.385l-303.512 195.723c-19.856 11.346-39.712 5.673-39.712-25.529v-385.773c0-31.202 22.693-36.875 39.712-25.529z" />
<glyph unicode="&#xe629;" d="M301.993 361.22l-55.539 206.536h-74.631l86.78-277.695h83.308l88.515 277.695h-74.631zM482.495 567.756h72.895v-277.695h-72.895v277.695zM765.397 567.756h-131.905v-277.695h72.895v91.986h59.010c60.746 0 100.664 26.034 100.664 95.458 0 65.953-48.597 90.251-100.664 90.251zM754.983 439.322h-48.597v71.159h48.597c20.827 0 38.183-10.414 38.183-36.447s-15.62-34.712-38.183-34.712zM512 960c-282.902 0-512-229.098-512-512s229.098-512 512-512 512 229.098 512 512-229.098 512-512 512zM512 14.102c-239.512 0-433.898 194.386-433.898 433.898s194.386 433.898 433.898 433.898 433.898-194.386 433.898-433.898-194.386-433.898-433.898-433.898z" />
<glyph unicode="&#xe62a;" d="M3.884 611.811l493.493-493.493c5.484-5.482 21.934-5.482 27.418 0l493.493 493.493c5.484 5.484 5.484 10.968 5.484 16.45s0 10.966-5.484 16.45l-137.081 137.084c0 0-5.484 0-10.968 0-5.482 0-10.966 0-16.45-5.484l-339.961-339.961-345.446 339.961c-5.484 5.484-21.934 5.484-27.418 0l-137.081-137.084c-5.484-10.964-5.484-21.932 0-27.416v0z" />
<glyph unicode="&#xe62b;" d="M971.6 111.465l-339.963 339.963 339.963 339.963c5.483 5.483 5.483 21.933 0 27.416l-137.082 137.082c-10.967 5.483-27.416 5.483-32.9 0l-493.494-493.494c-5.483-5.483-5.483-21.933 0-27.416l493.494-493.494c5.483-5.483 10.967-5.483 16.45-5.483s10.967 0 16.45 5.483l137.082 137.082c5.483 5.483 5.483 10.967 5.483 16.45s0 10.967-5.483 16.45zM171.043 835.256h-137.082c-21.933 0-38.383-10.967-32.9-21.933v-729.274c0-10.967 16.45-21.933 32.9-21.933h137.082c16.45 0 32.9 10.967 32.9 21.933v729.274c0 10.967-16.45 21.933-32.9 21.933z" horiz-adv-x="977" />
<glyph unicode="&#xe62c;" d="M664.654 462.86l-491.736 491.736c-5.404 5.404-10.807 5.404-16.211 5.404s-10.807 0-16.211-5.404l-135.092-135.092c0-5.404-5.404-10.807-5.404-16.211s0-10.807 5.404-16.211l340.433-340.433-340.433-340.433c-5.404-5.404-5.404-21.615 0-27.018l135.092-135.092c10.807-10.807 21.615-10.807 32.422 0l491.736 491.736c5.404 5.404 5.404 21.615 0 27.018zM1167.198 462.86l-491.736 491.736c-5.404 5.404-10.807 5.404-16.211 5.404s-10.807 0-16.211-5.404l-135.092-135.092c-5.404-5.404-5.404-10.807-5.404-16.211s0-10.807 5.404-16.211l340.433-340.433-340.433-340.433c-5.404-5.404-5.404-21.615 0-27.018l135.092-135.092c10.807-10.807 27.018-10.807 32.422 0l491.736 491.736c5.404 5.404 5.404 21.615 0 27.018z" horiz-adv-x="1171" />
<glyph unicode="&#xe62d;" d="M169.397 954.536c-5.464 5.464-10.929 5.464-16.393 5.464s-10.929 0-16.393-5.464l-131.146-136.611c-5.464-5.464-5.464-10.929-5.464-16.393s0-10.929 5.464-10.929l338.794-338.794-338.794-338.794c-5.464-5.464-5.464-21.858 0-27.322l136.611-136.611c5.464-16.393 21.858-16.393 27.322-5.464l491.798 491.798c5.464 5.464 5.464 21.858 0 27.322l-491.798 491.798zM967.203 80.228v726.768c0 10.929-16.393 21.858-32.787 21.858h-136.611c-16.393 0-32.787-10.929-32.787-21.858v-721.304c0-10.929 16.393-21.858 32.787-21.858h136.611c21.858 0 38.251 5.464 32.787 16.393z" horiz-adv-x="968" />
<glyph unicode="&#xe62e;" d="M532.717 960c-11.838 0-23.676 0-41.434-11.838 0 0-266.358-230.844-278.197-242.682h-147.977c-35.514 0-65.11-29.595-65.11-65.11v-390.659c0-35.514 29.595-65.11 65.11-65.11h147.977c11.838-11.838 278.197-236.763 278.197-236.763 17.757-11.838 29.595-11.838 41.434-11.838 23.676 0 41.434 23.676 47.353 41.434 0 0 0 935.214 0 941.133-5.919 17.757-23.676 35.514-47.353 41.434zM982.566 439.121l136.139 136.139c23.676 23.676 23.676 65.11 0 88.786s-65.11 23.676-88.786 0l-136.139-136.139-136.139 136.139c-23.676 23.676-65.11 23.676-88.786 0s-23.676-65.11 0-88.786l136.139-136.139-136.139-136.139c-23.676-23.676-23.676-65.11 0-88.786s65.11-23.676 88.786 0l136.139 136.139 136.139-136.139c29.595-23.676 65.11-23.676 88.786 0s23.676 65.11 0 88.786l-136.139 136.139z" horiz-adv-x="1136" />
<glyph unicode="&#xe62f;" d="M666.283 463.019l-491.52 491.52c-5.461 5.461-10.923 5.461-16.384 5.461s-10.923 0-16.384-5.461l-136.533-136.533c0-5.461-5.461-10.923-5.461-16.384s0-10.923 5.461-16.384l338.603-338.603-338.603-338.603c-5.461-5.461-5.461-21.845 0-27.307l136.533-136.533c10.923-10.923 21.845-10.923 32.768 0l491.52 491.52c5.461 5.461 5.461 21.845 0 27.307z" horiz-adv-x="670" />
<glyph unicode="&#xe630;" d="M816.832 960h-254.52c-23.676 0-41.434-23.676-41.434-47.353v-923.376c0-29.595 17.757-47.353 41.434-47.353h254.52v-5.919c23.676 0 41.434 23.676 41.434 47.353v929.295c0 29.595-17.757 47.353-41.434 47.353zM301.873 960h-260.439c-17.757 0-41.434-23.676-41.434-47.353v-923.376c0-29.595 17.757-47.353 41.434-47.353h260.439v-5.919c23.676 0 41.434 23.676 41.434 47.353v929.295c0 29.595-17.757 47.353-41.434 47.353z" horiz-adv-x="858" />
<glyph unicode="&#xe631;" d="M79.669-64c-12.257 0-24.514 0-36.771 6.128-24.514 12.257-42.899 36.771-42.899 61.284v888.621c0 24.514 18.385 49.027 42.899 61.284s61.284 6.128 79.669-6.128l618.971-441.246c18.385-12.257 30.642-36.771 30.642-55.156 0-24.514-12.257-42.899-30.642-55.156l-618.971-441.246c-6.128-12.257-24.514-18.385-42.899-18.385z" horiz-adv-x="772" />
<glyph unicode="&#xe632;" d="M497.606 955.888l-493.494-493.494c-5.483-5.483-5.483-21.933 0-27.416l493.494-493.494c5.483-5.483 10.967-5.483 16.45-5.483s10.967 0 16.45 5.483l137.082 137.082c5.483 5.483 5.483 10.967 5.483 16.45s0 10.967-5.483 16.45l-339.963 339.963 339.963 339.963c5.483 5.483 5.483 21.933 0 27.416l-137.082 137.082c-10.967 5.483-27.416 5.483-32.9 0v0z" horiz-adv-x="673" />
<glyph unicode="&#xe633;" d="M261.825 679.462c114.37 114.37 283.201 130.708 413.909 49.016-43.569-43.569-92.585-92.585-92.585-92.585-38.123-43.569 5.446-65.354 27.231-65.354h234.185c10.892 0 21.785 0 21.785 0h70.8c10.892 0 21.785 10.892 21.785 21.785v326.77c0 27.231-32.677 59.908-65.354 27.231 0 0-54.462-54.462-92.585-92.585-196.062 141.6-473.817 125.262-653.541-49.016-103.477-103.477-152.493-239.632-147.047-375.786h168.831c-10.892 81.693 21.785 179.724 92.585 250.524zM822.78 467.062h0.443c-0.096 3.636-0.231 7.271-0.443 10.892v-10.892zM991.612 467.062h-168.388c2.367-89.324-30.444-182.492-98.474-250.524-114.37-114.37-283.201-130.708-413.909-49.016 43.569 43.569 92.585 92.585 92.585 92.585 38.123 43.569-5.446 65.354-27.231 65.354h-228.739c-10.892 0-21.785 0-21.785 0h-70.8c-10.892 0-21.785-10.892-21.785-21.785v-326.77c0-27.231 32.677-59.908 65.354-27.231 0 0 54.462 54.462 92.585 92.585 196.062-141.6 473.817-125.262 653.541 49.016 103.477 103.477 152.493 239.632 147.047 375.786z" horiz-adv-x="992" />
<glyph unicode="&#xe634;" d="M1170.479 109.605l-341.785 341.785 341.785 336.36c5.425 5.425 5.425 21.701 0 27.126l-135.629 135.629c-10.85 10.85-21.701 10.85-32.551 5.425l-493.69-493.69c-5.425-5.425-5.425-21.701 0-27.126l493.69-493.69c5.425-5.425 10.85-5.425 16.275-5.425s10.85 0 16.275 5.425l135.629 135.629c5.425 5.425 5.425 10.85 5.425 16.275s0 10.85-5.425 16.275zM324.154 451.391l341.785 341.785c5.425 5.425 5.425 21.701 0 27.126l-135.629 135.629c-10.85 5.425-27.126 5.425-32.551 0l-493.69-493.69c-5.425-5.425-5.425-21.701 0-27.126l493.69-493.69c5.425-5.425 10.85-5.425 16.275-5.425s10.85 0 16.275 5.425l135.629 135.629c5.425 5.425 5.425 10.85 5.425 16.275s0 10.85-5.425 16.275l-341.785 341.785z" horiz-adv-x="1176" />
<glyph unicode="&#xe635;" d="M987.98 522.613l-102.915 15.437c-5.146 30.874-20.583 61.749-30.874 87.477l66.894 82.332c15.437 15.437 15.437 41.166 0 56.603l-41.166 46.312c-15.437 15.437-41.166 20.583-56.603 10.291l-92.623-56.603c-36.020 25.729-82.332 46.312-128.643 56.603l-15.437 102.915c-5.146 20.583-20.583 36.020-46.312 36.020h-61.749c-20.583 0-41.166-15.437-46.312-36.020l-15.437-102.915c-41.166-10.291-77.186-25.729-108.060-46.312l-82.332 56.603c-15.437 20.583-41.166 15.437-56.603 0l-41.166-41.166c-20.583-15.437-20.583-41.166-5.146-56.603l61.749-82.332c-20.583-30.874-36.020-66.894-46.312-108.060l-102.915-15.437c-20.583-5.146-36.020-20.583-36.020-46.312v-61.749c0-20.583 15.437-41.166 36.020-46.312l102.915-15.437c10.291-30.874 20.583-61.749 36.020-87.477l-66.894-82.332c-15.437-15.437-15.437-41.166 0-56.603l41.166-46.312c15.437-15.437 41.166-20.583 56.603-10.291l87.477 56.603c36.020-25.729 77.186-46.312 123.497-56.603l15.437-102.915c5.146-20.583 20.583-36.020 46.312-36.020h61.749c20.583 0 41.166 15.437 46.312 36.020l15.437 102.915c36.020 10.291 72.040 25.729 108.060 46.312l87.477-61.749c15.437-10.291 41.166-10.291 56.603 5.146l41.166 41.166c15.437 15.437 15.437 41.166 5.146 56.603l-61.749 87.477c20.583 30.874 36.020 66.894 46.312 108.060l102.915 15.437c20.583 5.146 36.020 20.583 36.020 46.312v61.749c0 20.583-15.437 41.166-36.020 41.166v0zM509.427 255.035c-108.060 0-190.392 87.477-190.392 195.538s87.477 190.392 190.392 190.392c108.060 0 190.392-87.477 190.392-190.392 5.146-108.060-82.332-195.538-190.392-195.538v0z" />
<glyph unicode="&#xe636;" d="M919.891 650.78h105.663v-62.155c0-12.431 6.215-24.862 12.431-31.077 12.431-6.215 18.646-6.215 31.077 0l261.050 167.818c12.431 6.215 12.431 18.646 12.431 31.077s-6.215 24.862-12.431 31.077l-254.835 167.818c-12.431 6.215-18.646 6.215-31.077 0s-12.431-18.646-12.431-31.077v-62.155h-105.663c-161.602 0-279.697-174.033-397.791-335.636-93.232-136.741-192.68-279.697-292.127-279.697h-205.111c-18.646 0-31.077-18.646-31.077-37.293v-142.956c0-18.646 12.431-37.293 31.077-37.293h205.111c186.464 0 316.989 192.68 435.083 360.498 87.017 130.525 174.033 261.050 248.619 261.050zM1330.112 165.973l-261.050 167.818c-12.431 6.215-18.646 6.215-31.077 0s-12.431-18.646-12.431-31.077v-62.155h-105.663c-55.939 0-124.31 80.801-167.818 142.956l-124.31-155.387c68.37-93.232 167.818-192.68 292.127-192.68h105.663v-62.155c0-12.431 6.215-24.862 12.431-31.077s12.431-6.215 12.431-6.215 12.431 0 12.431 6.215l254.835 167.818c12.431 6.215 12.431 18.646 12.431 31.077 12.431 6.215 12.431 18.646 0 24.862zM31.077 644.564h205.111c68.37 0 142.956-80.801 186.464-142.956l124.31 161.602c-68.37 87.017-174.033 198.895-316.989 198.895h-198.895c-18.646 0-31.077-18.646-31.077-37.293v-142.956c0-18.646 12.431-37.293 31.077-37.293z" horiz-adv-x="1343" />
<glyph unicode="&#xe637;" d="M532.717 960c-11.838 0-23.676 0-41.434-11.838 0 0-266.358-230.844-278.197-242.682h-147.977c-35.514 0-65.11-29.595-65.11-65.11v-390.659c0-35.514 29.595-65.11 65.11-65.11h147.977c11.838-11.838 278.197-236.763 278.197-236.763 17.757-11.838 29.595-11.838 41.434-11.838 23.676 0 41.434 23.676 47.353 41.434 0 0 0 935.214 0 941.133-5.919 17.757-23.676 35.514-47.353 41.434zM757.642 717.318c-23.676 23.676-65.11 17.757-82.867-5.919-23.676-23.676-17.757-65.11 5.919-82.867 53.272-41.434 82.867-112.462 82.867-189.41s-35.514-147.977-82.867-189.41c-23.676-17.757-29.595-59.191-5.919-82.867 11.838-17.757 29.595-23.676 47.353-23.676 11.838 0 23.676 5.919 35.514 11.838 76.948 59.191 124.301 165.734 124.301 278.197s-47.353 219.006-124.301 284.116z" horiz-adv-x="882" />
<glyph unicode="&#xe638;" d="M465.455 908.283c-10.343 0-20.687 0-36.202-10.343 0 0-232.727-201.697-243.071-212.040h-129.293c-31.030 0-56.889-25.859-56.889-56.889v-341.333c0-31.030 25.859-56.889 56.889-56.889h129.293c10.343-10.343 243.071-206.869 243.071-206.869 15.515-10.343 25.859-10.343 36.202-10.343 20.687 0 36.202 20.687 41.374 36.202 0 0 0 817.131 0 822.303-5.172 15.515-20.687 31.030-41.374 36.202zM936.081 944.485c-20.687 20.687-51.717 20.687-72.404 0s-20.687-51.717 0-72.404c103.434-103.434 160.323-258.586 160.323-424.081s-56.889-320.646-160.323-424.081c-20.687-20.687-20.687-51.717 0-72.404 10.343-10.343 25.859-15.515 36.202-15.515 15.515 0 31.030 5.172 36.202 15.515 118.949 124.121 186.182 305.131 186.182 496.485s-67.232 372.364-186.182 496.485zM801.616 825.535c-20.687 20.687-51.717 20.687-72.404 0s-20.687-51.717 0-72.404c72.404-72.404 113.778-181.010 113.778-299.96s-41.374-227.556-113.778-299.96c-20.687-20.687-20.687-51.717 0-72.404 10.343-10.343 20.687-15.515 36.202-15.515 10.343 0 25.859 5.172 36.202 15.515 93.091 93.091 144.808 227.556 144.808 372.364s-51.717 279.273-144.808 372.364zM661.98 696.242c-20.687 20.687-56.889 15.515-72.404-5.172-20.687-20.687-15.515-56.889 5.172-72.404 46.545-36.202 72.404-98.263 72.404-165.495s-31.030-129.293-72.404-165.495c-20.687-15.515-25.859-51.717-5.172-72.404 10.343-15.515 25.859-20.687 41.374-20.687 10.343 0 20.687 5.172 31.030 10.343 67.232 51.717 108.606 144.808 108.606 243.071s-41.374 191.354-108.606 248.242z" horiz-adv-x="1122" />
<glyph unicode="&#xe639;" d="M957.741 960h-885.459c-36.141 0-72.282-36.141-72.282-72.282v-879.435c0-42.165 30.118-72.282 72.282-72.282h879.435c42.165 0 72.282 30.118 72.282 72.282v879.435c0 36.141-30.118 72.282-66.259 72.282z" />
<glyph unicode="&#xe63a;" d="M512 960c-281.6 0-512-230.4-512-512s230.4-512 512-512 512 230.4 512 512-230.4 512-512 512zM512 43.52c-220.16 0-404.48 179.2-404.48 404.48 0 220.16 179.2 404.48 404.48 404.48 220.16 0 404.48-179.2 404.48-404.48-5.12-225.28-184.32-404.48-404.48-404.48zM778.24 463.36h-230.4v276.48c0 25.6-20.48 40.96-40.96 40.96-25.6 0-40.96-20.48-40.96-40.96v-317.44c0-25.6 20.48-40.96 40.96-40.96h271.36c25.6 0 40.96 20.48 40.96 40.96s-20.48 40.96-40.96 40.96z" />
<glyph unicode="&#xe63b;" d="M1019.888 284.187l-493.495 493.495c-5.482 5.482-21.932 5.482-27.416 0l-493.493-493.495c-5.484 0-5.484-5.484-5.484-10.966 0-5.484 0-10.968 5.484-16.45l137.081-137.083c5.484-5.484 10.968-5.484 16.45-5.484 5.484 0 10.968 0 16.45 5.484l339.963 339.963 339.963-339.963c5.484-5.484 21.934-5.484 27.416 0l137.083 137.083c5.484 10.966 5.484 21.932 0 27.416v0z" />
<glyph unicode="&#xe63c;" d="M56.889-64c-14.564 0-29.127 5.575-40.22 16.668-22.244 22.244-22.244 58.197 0 80.441l414.891 415.004-414.891 414.777c-22.244 22.187-22.244 58.197 0 80.441s58.197 22.244 80.384 0l455.111-455.054c10.752-10.638 16.725-25.088 16.725-40.22s-5.973-29.582-16.725-40.22l-455.111-455.225c-11.036-11.093-25.6-16.612-40.164-16.612z" horiz-adv-x="569" />
<glyph unicode="&#xe63d;" d="M512 960c14.564 0 29.127-5.575 40.22-16.668 22.244-22.244 22.244-58.197 0-80.441l-414.891-414.948 414.891-414.834c22.244-22.187 22.244-58.14 0-80.441-22.3-22.244-58.197-22.244-80.441 0l-455.111 455.111c-10.695 10.581-16.668 25.031-16.668 40.22s5.973 29.582 16.668 40.22l455.111 455.225c11.036 11.036 25.657 16.555 40.22 16.555z" horiz-adv-x="569" />
<glyph unicode="&#xe63e;" d="M0 960v-384.073l135.607 135.534 157.257-157.477 113.298 113.152-157.623 157.403 135.607 135.461zM1024 960h-383.854l135.461-135.461-157.477-157.403 113.079-113.225 157.477 157.55 135.314-135.534zM1024-64v383.927l-135.314-135.314-157.477 157.403-113.079-113.152 157.477-157.403-135.461-135.461zM0-63.854l384.146-0.146-135.607 135.461 157.623 157.55-113.298 113.152-157.257-157.55-135.607 135.534z" />
<glyph unicode="&#xe63f;" d="M956.583-52.28l53.763 54.104c13.768 13.597 16.1 33.509 5.291 44.376l-320.132 319.961c42.555 62.581 65.312 136.2 65.312 213.459 0 101.552-39.54 197.074-111.338 268.986-71.855 71.741-167.32 111.395-268.929 111.395-101.666 0-197.188-39.654-269.043-111.395-71.912-71.912-111.508-167.376-111.508-268.986 0-101.78 39.597-197.131 111.508-269.156 71.855-71.684 167.376-111.11 269.043-111.11 76.235 0 149.171 22.074 211.183 63.947l320.53-320.359c10.809-10.923 30.779-8.534 44.319 4.779zM380.551 302.214c-152.926 0-277.349 124.537-277.349 277.406 0 152.926 124.423 277.406 277.349 277.406 152.869 0 277.178-124.48 277.178-277.406 0.057-152.812-124.309-277.406-277.178-277.406z" horiz-adv-x="1023" />
<glyph unicode="&#xe640;" d="M678.663 447.941l311.191 311.074c46.037 46.037 46.037 120.45 0 166.487s-120.45 46.037-166.487 0l-311.191-311.074-311.191 311.074c-46.037 46.037-120.45 46.037-166.487 0s-46.037-120.45 0-166.487l311.191-311.074-311.191-310.956c-46.037-46.037-46.037-120.45 0-166.487 22.96-23.077 53.102-34.498 83.243-34.498s60.284 11.421 83.243 34.498l311.191 310.956 311.191-311.074c22.96-22.96 53.102-34.381 83.243-34.381s60.166 11.421 83.243 34.498c46.037 46.037 46.037 120.45 0 166.487l-311.191 310.956z" />
<glyph unicode="&#xe641;" d="M247.84-64c-13.024 0-25.536 4.032-36.192 11.648-21.984 15.488-31.424 43.392-23.36 69.344l93.696 300.16-255.84 182.688c-22.016 15.776-31.36 43.68-23.296 69.44 8.032 25.824 31.68 43.424 58.848 43.712l314.336 3.68 94.656 299.744c8.128 25.792 31.808 43.328 58.88 43.584 27.36 0 51.136-17.024 59.712-42.336l100.672-297.92 314.368 2.56c34.944 0 62.912-28 62.912-62.4 0-20.032-9.792-39.040-26.144-50.752l-251.264-187.040 99.584-298.176c8.64-25.504-0.128-53.632-21.792-69.888-22.112-16.096-52.032-16.096-73.504-0.704l-256.416 181.76-252.8-186.848c-10.88-8.032-23.68-12.256-37.056-12.256zM528.704 897.12l-105.6-343.936-360.672-4.192 294.464-206.656-106.048-339.744 286.144 211.488 294.304-208.64-116.768 340.352 288.896 215.040-359.232-5.472-115.488 341.76z" horiz-adv-x="1067" />
<glyph unicode="&#xe642;" d="M1024.060 568.471h-391.59v391.529h-240.941v-391.529h-391.529v-240.941h391.529v-391.529h240.941v391.529h391.59z" />
<glyph unicode="&#xe643;" d="M-0.042 785.954v-675.95h1024.084v675.95h-1024.084zM40.935 744.977h33.584l437.481-372.552 437.566 372.552h33.584v-25.304l-307.538-261.787 307.538-289.584v-17.32h-41.315l-297.653 280.079-132.182-112.327-132.182 112.37-297.653-280.079h-41.23v17.32l307.538 289.584-307.538 261.745v25.304z" />
<glyph unicode="&#xe644;" d="M1260.131 838.805c-46.378-20.582-96.302-34.488-148.59-40.746 53.47 31.985 94.425 82.743 113.685 142.958-49.994-29.76-105.272-50.898-164.235-62.44-46.934 49.924-114.311 81.422-188.571 81.422-142.749 0-258.59-115.771-258.59-258.521 0-20.303 2.225-39.842 6.814-58.894-214.854 10.847-405.442 113.824-532.894 270.271-22.25-38.382-35.114-82.743-35.114-129.956 0-89.696 45.822-168.824 115.076-215.341-42.345 1.321-82.117 13.211-117.231 32.402v-3.338c0-125.366 89.071-229.734 207.414-253.375-21.624-6.188-44.57-9.248-68.072-9.248-16.688 0-32.889 1.599-48.464 4.728 32.75-102.838 128.217-177.516 241.416-179.532-88.445-69.532-199.974-110.695-321.239-110.695-20.79 0-41.441 1.043-61.536 3.477 114.38-73.287 250.316-115.98 396.194-115.98 475.6 0 735.65 393.761 735.65 735.65 0 11.056-0.209 22.111-0.765 33.236 50.55 36.435 94.286 82.117 129.052 133.919z" horiz-adv-x="1260" />
<glyph unicode="&#xe645;" d="M0 621.383h105.779v102.779c0 45.334 1.189 115.513 34.184 158.81 34.694 45.787 82.348 77.028 164.356 77.028 133.398 0 189.711-18.96 189.711-18.96l-26.431-156.999c0 0-44.089 12.904-85.347 12.904s-77.933-14.828-77.933-55.974v-119.588h168.657l-11.659-153.15h-156.999v-532.233h-198.54v532.233h-105.779v153.15z" horiz-adv-x="494" />
<glyph unicode="&#xe646;" d="M1024.048 160.018c0-19.074-8.525-38.003-24.805-50.622-27.84-21.626-68.058-16.665-89.732 11.271l-397.655 511.037-397.414-510.989c-21.723-27.84-61.941-32.945-89.732-11.174-27.936 21.723-33.090 61.893-11.271 89.829l447.94 575.964c12.090 15.606 30.874 24.709 50.526 24.709 19.748 0 38.484-9.055 50.622-24.709l448.132-575.964c8.911-11.897 13.39-25.624 13.39-39.351z" />
<glyph unicode="&#xe647;" d="M-0.096 736.030c0 19.074 8.525 38.003 24.805 50.574 27.84 21.626 68.058 16.665 89.732-11.271l397.655-510.989 397.366 510.892c21.723 27.888 61.941 32.897 89.732 11.174 27.936-21.771 33.090-61.941 11.271-89.829l-447.843-575.868c-12.090-15.606-30.874-24.709-50.526-24.709-19.748 0-38.484 9.055-50.622 24.709l-448.084 575.964c-9.007 11.849-13.486 25.576-13.486 39.351z" />
<glyph unicode="&#xe648;" d="M193.422 732.444c22.756 0 37.926 15.17 37.926 37.926v151.704c0 22.756-15.17 37.926-37.926 37.926s-37.926-15.17-37.926-37.926v-151.704c0-18.963 15.17-37.926 37.926-37.926zM800.237 732.444c22.756 0 37.926 15.17 37.926 37.926v151.704c0 22.756-15.17 37.926-37.926 37.926s-37.926-15.17-37.926-37.926v-151.704c0-18.963 15.17-37.926 37.926-37.926zM79.644 133.215v447.526h834.37v-75.852h75.852v219.97c0 45.511-37.926 83.437-83.437 83.437h-30.341v-37.926c0-41.719-34.133-75.852-75.852-75.852s-75.852 34.133-75.852 75.852v37.926h-455.111v-37.926c0-41.719-34.133-75.852-75.852-75.852s-75.852 34.133-75.852 75.852v37.926h-34.133c-45.511 0-83.437-37.926-83.437-83.437v-591.644c0-45.511 37.926-83.437 83.437-83.437h295.822v75.852h-295.822c-3.793 0-3.793 3.793-3.793 7.585zM713.007 512.474c-159.289 0-288.237-128.948-288.237-288.237s128.948-288.237 288.237-288.237 288.237 128.948 288.237 288.237-128.948 288.237-288.237 288.237zM713.007 0.474c-125.156 0-227.556 102.4-227.556 227.556s102.4 227.556 227.556 227.556 227.556-102.4 227.556-227.556-102.4-227.556-227.556-227.556zM834.37 250.785h-106.193v106.193c0 18.963-15.17 34.133-34.133 34.133s-34.133-15.17-34.133-34.133v-144.119c0-18.963 15.17-34.133 34.133-34.133h144.119c18.963 0 34.133 15.17 34.133 34.133s-18.963 37.926-37.926 37.926z" horiz-adv-x="1001" />
</font>
</defs>
</svg>
